<svg width="328" height="172" viewBox="0 0 328 172" fill="none" xmlns="http://www.w3.org/2000/svg">
<path d="M3.38783 154L0.711828 145.6H2.09183L3.71183 150.856C3.75983 150.984 3.80383 151.136 3.84383 151.312C3.88383 151.48 3.91983 151.652 3.95183 151.828C3.98383 152.004 4.01183 152.168 4.03583 152.32C4.06783 152.472 4.09583 152.596 4.11983 152.692L3.77183 152.68C3.89183 152.256 3.98383 151.928 4.04783 151.696C4.11983 151.464 4.17583 151.288 4.21583 151.168C4.25583 151.04 4.29183 150.932 4.32383 150.844L5.83583 147.052H6.99983L8.46383 150.844C8.54383 151.036 8.61183 151.228 8.66783 151.42C8.73183 151.604 8.78783 151.792 8.83583 151.984C8.88383 152.168 8.93583 152.364 8.99183 152.572L8.67983 152.656C8.71983 152.44 8.74783 152.272 8.76383 152.152C8.78783 152.024 8.80783 151.92 8.82383 151.84C8.83983 151.76 8.85583 151.684 8.87183 151.612C8.88783 151.532 8.91183 151.432 8.94383 151.312C8.98383 151.192 9.03583 151.028 9.09983 150.82L10.6958 145.6H12.0878L9.41183 154H8.51183L6.29183 148.744L6.39983 148.792L4.26383 154H3.38783ZM15.8763 154.12C15.2283 154.12 14.6523 153.984 14.1483 153.712C13.6523 153.432 13.2603 153.052 12.9723 152.572C12.6923 152.092 12.5523 151.54 12.5523 150.916C12.5523 150.42 12.6323 149.968 12.7923 149.56C12.9523 149.152 13.1723 148.8 13.4523 148.504C13.7403 148.2 14.0803 147.968 14.4723 147.808C14.8723 147.64 15.3043 147.556 15.7683 147.556C16.1763 147.556 16.5563 147.636 16.9083 147.796C17.2603 147.948 17.5643 148.16 17.8203 148.432C18.0843 148.704 18.2843 149.028 18.4203 149.404C18.5643 149.772 18.6323 150.176 18.6243 150.616L18.6123 151.144H13.4643L13.1883 150.16H17.5443L17.3643 150.364V150.076C17.3403 149.812 17.2523 149.576 17.1003 149.368C16.9483 149.16 16.7563 148.996 16.5243 148.876C16.2923 148.756 16.0403 148.696 15.7683 148.696C15.3363 148.696 14.9723 148.78 14.6763 148.948C14.3803 149.108 14.1563 149.348 14.0043 149.668C13.8523 149.98 13.7763 150.368 13.7763 150.832C13.7763 151.272 13.8683 151.656 14.0523 151.984C14.2363 152.304 14.4963 152.552 14.8323 152.728C15.1683 152.904 15.5563 152.992 15.9963 152.992C16.3083 152.992 16.5963 152.94 16.8603 152.836C17.1323 152.732 17.4243 152.544 17.7363 152.272L18.3603 153.148C18.1683 153.34 17.9323 153.508 17.6523 153.652C17.3803 153.796 17.0883 153.912 16.7763 154C16.4723 154.08 16.1723 154.12 15.8763 154.12ZM19.5475 148.696L19.8235 145.6H21.2395L20.2675 148.696H19.5475ZM22.4285 154V147.7H23.6765V149.68L23.5565 149.2C23.6445 148.896 23.7925 148.62 24.0005 148.372C24.2165 148.124 24.4605 147.928 24.7325 147.784C25.0125 147.64 25.3005 147.568 25.5965 147.568C25.7325 147.568 25.8605 147.58 25.9805 147.604C26.1085 147.628 26.2085 147.656 26.2805 147.688L25.9565 149.032C25.8605 148.992 25.7525 148.96 25.6325 148.936C25.5205 148.904 25.4085 148.888 25.2965 148.888C25.0805 148.888 24.8725 148.932 24.6725 149.02C24.4805 149.1 24.3085 149.216 24.1565 149.368C24.0125 149.512 23.8965 149.684 23.8085 149.884C23.7205 150.076 23.6765 150.288 23.6765 150.52V154H22.4285ZM29.9388 154.12C29.2908 154.12 28.7148 153.984 28.2108 153.712C27.7148 153.432 27.3228 153.052 27.0348 152.572C26.7548 152.092 26.6148 151.54 26.6148 150.916C26.6148 150.42 26.6948 149.968 26.8548 149.56C27.0148 149.152 27.2348 148.8 27.5148 148.504C27.8028 148.2 28.1428 147.968 28.5348 147.808C28.9348 147.64 29.3668 147.556 29.8308 147.556C30.2388 147.556 30.6188 147.636 30.9708 147.796C31.3228 147.948 31.6268 148.16 31.8828 148.432C32.1468 148.704 32.3468 149.028 32.4828 149.404C32.6268 149.772 32.6948 150.176 32.6868 150.616L32.6748 151.144H27.5268L27.2508 150.16H31.6068L31.4268 150.364V150.076C31.4028 149.812 31.3148 149.576 31.1628 149.368C31.0108 149.16 30.8188 148.996 30.5868 148.876C30.3548 148.756 30.1028 148.696 29.8308 148.696C29.3988 148.696 29.0348 148.78 28.7388 148.948C28.4428 149.108 28.2188 149.348 28.0668 149.668C27.9148 149.98 27.8388 150.368 27.8388 150.832C27.8388 151.272 27.9308 151.656 28.1148 151.984C28.2988 152.304 28.5588 152.552 28.8948 152.728C29.2308 152.904 29.6188 152.992 30.0588 152.992C30.3708 152.992 30.6588 152.94 30.9228 152.836C31.1948 152.732 31.4868 152.544 31.7988 152.272L32.4228 153.148C32.2308 153.34 31.9948 153.508 31.7148 153.652C31.4428 153.796 31.1508 153.912 30.8388 154C30.5348 154.08 30.2348 154.12 29.9388 154.12ZM39.4933 154.12C38.9653 154.12 38.4893 154.028 38.0653 153.844C37.6413 153.66 37.2893 153.388 37.0093 153.028L37.8493 152.308C38.0893 152.588 38.3493 152.792 38.6293 152.92C38.9173 153.04 39.2413 153.1 39.6013 153.1C39.7453 153.1 39.8773 153.084 39.9973 153.052C40.1253 153.012 40.2333 152.956 40.3213 152.884C40.4173 152.812 40.4893 152.728 40.5373 152.632C40.5853 152.528 40.6093 152.416 40.6093 152.296C40.6093 152.088 40.5333 151.92 40.3813 151.792C40.3013 151.736 40.1733 151.676 39.9973 151.612C39.8293 151.54 39.6093 151.468 39.3373 151.396C38.8733 151.276 38.4933 151.14 38.1973 150.988C37.9013 150.836 37.6733 150.664 37.5133 150.472C37.3933 150.32 37.3053 150.156 37.2493 149.98C37.1933 149.796 37.1653 149.596 37.1653 149.38C37.1653 149.116 37.2213 148.876 37.3333 148.66C37.4533 148.436 37.6133 148.244 37.8133 148.084C38.0213 147.916 38.2613 147.788 38.5333 147.7C38.8133 147.612 39.1093 147.568 39.4213 147.568C39.7173 147.568 40.0093 147.608 40.2973 147.688C40.5933 147.768 40.8653 147.884 41.1133 148.036C41.3613 148.188 41.5693 148.368 41.7373 148.576L41.0293 149.356C40.8773 149.204 40.7093 149.072 40.5253 148.96C40.3493 148.84 40.1693 148.748 39.9853 148.684C39.8013 148.62 39.6333 148.588 39.4813 148.588C39.3133 148.588 39.1613 148.604 39.0253 148.636C38.8893 148.668 38.7733 148.716 38.6773 148.78C38.5893 148.844 38.5213 148.924 38.4733 149.02C38.4253 149.116 38.4013 149.224 38.4013 149.344C38.4093 149.448 38.4333 149.548 38.4733 149.644C38.5213 149.732 38.5853 149.808 38.6653 149.872C38.7533 149.936 38.8853 150.004 39.0613 150.076C39.2373 150.148 39.4613 150.216 39.7333 150.28C40.1333 150.384 40.4613 150.5 40.7173 150.628C40.9813 150.748 41.1893 150.888 41.3413 151.048C41.5013 151.2 41.6133 151.376 41.6773 151.576C41.7413 151.776 41.7733 152 41.7733 152.248C41.7733 152.608 41.6693 152.932 41.4613 153.22C41.2613 153.5 40.9893 153.72 40.6453 153.88C40.3013 154.04 39.9173 154.12 39.4933 154.12ZM45.9675 154.12C45.3515 154.12 44.7995 153.98 44.3115 153.7C43.8315 153.412 43.4515 153.024 43.1715 152.536C42.8915 152.04 42.7515 151.476 42.7515 150.844C42.7515 150.212 42.8915 149.652 43.1715 149.164C43.4515 148.668 43.8315 148.28 44.3115 148C44.7995 147.712 45.3515 147.568 45.9675 147.568C46.5755 147.568 47.1195 147.712 47.5995 148C48.0875 148.28 48.4715 148.668 48.7515 149.164C49.0315 149.652 49.1715 150.212 49.1715 150.844C49.1715 151.476 49.0315 152.04 48.7515 152.536C48.4715 153.024 48.0875 153.412 47.5995 153.7C47.1195 153.98 46.5755 154.12 45.9675 154.12ZM45.9675 152.992C46.3435 152.992 46.6795 152.9 46.9755 152.716C47.2715 152.524 47.5035 152.268 47.6715 151.948C47.8395 151.62 47.9195 151.252 47.9115 150.844C47.9195 150.428 47.8395 150.06 47.6715 149.74C47.5035 149.412 47.2715 149.156 46.9755 148.972C46.6795 148.788 46.3435 148.696 45.9675 148.696C45.5915 148.696 45.2515 148.792 44.9475 148.984C44.6515 149.168 44.4195 149.424 44.2515 149.752C44.0835 150.072 44.0035 150.436 44.0115 150.844C44.0035 151.252 44.0835 151.62 44.2515 151.948C44.4195 152.268 44.6515 152.524 44.9475 152.716C45.2515 152.9 45.5915 152.992 45.9675 152.992ZM50.5183 154V147.7H51.7663V149.68L51.6463 149.2C51.7343 148.896 51.8823 148.62 52.0903 148.372C52.3063 148.124 52.5503 147.928 52.8223 147.784C53.1023 147.64 53.3903 147.568 53.6863 147.568C53.8223 147.568 53.9503 147.58 54.0703 147.604C54.1983 147.628 54.2983 147.656 54.3703 147.688L54.0463 149.032C53.9503 148.992 53.8423 148.96 53.7223 148.936C53.6103 148.904 53.4983 148.888 53.3863 148.888C53.1703 148.888 52.9623 148.932 52.7623 149.02C52.5703 149.1 52.3983 149.216 52.2463 149.368C52.1023 149.512 51.9863 149.684 51.8983 149.884C51.8103 150.076 51.7663 150.288 51.7663 150.52V154H50.5183ZM55.3581 154V147.7H56.6061V149.68L56.4861 149.2C56.5741 148.896 56.7221 148.62 56.9301 148.372C57.1461 148.124 57.3901 147.928 57.6621 147.784C57.9421 147.64 58.2301 147.568 58.5261 147.568C58.6621 147.568 58.7901 147.58 58.9101 147.604C59.0381 147.628 59.1381 147.656 59.2101 147.688L58.8861 149.032C58.7901 148.992 58.6821 148.96 58.5621 148.936C58.4501 148.904 58.3381 148.888 58.2261 148.888C58.0101 148.888 57.8021 148.932 57.6021 149.02C57.4101 149.1 57.2381 149.216 57.0861 149.368C56.9421 149.512 56.8261 149.684 56.7381 149.884C56.6501 150.076 56.6061 150.288 56.6061 150.52V154H55.3581ZM61.254 156.76L62.526 153.82L62.538 154.804L59.394 147.7H60.834L62.802 152.332C62.842 152.412 62.89 152.536 62.946 152.704C63.002 152.864 63.05 153.024 63.09 153.184L62.778 153.256C62.842 153.088 62.902 152.92 62.958 152.752C63.022 152.584 63.082 152.416 63.138 152.248L64.782 147.7H66.246L63.654 154L62.586 156.76H61.254ZM67.3626 156.148L66.9066 155.596C67.1866 155.436 67.4146 155.252 67.5906 155.044C67.7666 154.836 67.8546 154.656 67.8546 154.504C67.8546 154.424 67.8346 154.344 67.7946 154.264C67.7546 154.192 67.6706 154.088 67.5426 153.952C67.3826 153.8 67.2786 153.672 67.2306 153.568C67.1826 153.464 67.1586 153.352 67.1586 153.232C67.1586 153.04 67.2266 152.888 67.3626 152.776C67.4986 152.656 67.6746 152.596 67.8906 152.596C68.0906 152.596 68.2706 152.656 68.4306 152.776C68.5986 152.888 68.7266 153.048 68.8146 153.256C68.9106 153.456 68.9586 153.688 68.9586 153.952C68.9586 154.192 68.9186 154.424 68.8386 154.648C68.7586 154.872 68.6466 155.08 68.5026 155.272C68.3586 155.464 68.1906 155.636 67.9986 155.788C67.8066 155.94 67.5946 156.06 67.3626 156.148ZM74.5131 154V146.092H75.7491V154H74.5131ZM73.2051 148.9V147.7H77.2131V148.9H73.2051ZM78.3386 154V145.12H79.5746V148.996L79.3586 149.14C79.4386 148.86 79.5946 148.604 79.8266 148.372C80.0586 148.132 80.3346 147.94 80.6546 147.796C80.9746 147.644 81.3026 147.568 81.6386 147.568C82.1186 147.568 82.5186 147.664 82.8386 147.856C83.1586 148.04 83.3986 148.324 83.5586 148.708C83.7186 149.092 83.7986 149.576 83.7986 150.16V154H82.5626V150.244C82.5626 149.884 82.5146 149.588 82.4186 149.356C82.3226 149.116 82.1746 148.944 81.9746 148.84C81.7746 148.728 81.5266 148.68 81.2306 148.696C80.9906 148.696 80.7706 148.736 80.5706 148.816C80.3706 148.888 80.1946 148.992 80.0426 149.128C79.8986 149.264 79.7826 149.424 79.6946 149.608C79.6146 149.784 79.5746 149.976 79.5746 150.184V154H78.9626C78.8586 154 78.7546 154 78.6506 154C78.5466 154 78.4426 154 78.3386 154ZM88.4153 154.12C87.7673 154.12 87.1913 153.984 86.6873 153.712C86.1913 153.432 85.7993 153.052 85.5113 152.572C85.2313 152.092 85.0913 151.54 85.0913 150.916C85.0913 150.42 85.1713 149.968 85.3313 149.56C85.4913 149.152 85.7113 148.8 85.9913 148.504C86.2793 148.2 86.6193 147.968 87.0113 147.808C87.4113 147.64 87.8433 147.556 88.3073 147.556C88.7153 147.556 89.0953 147.636 89.4473 147.796C89.7993 147.948 90.1033 148.16 90.3593 148.432C90.6233 148.704 90.8233 149.028 90.9593 149.404C91.1033 149.772 91.1713 150.176 91.1633 150.616L91.1513 151.144H86.0033L85.7273 150.16H90.0833L89.9033 150.364V150.076C89.8793 149.812 89.7913 149.576 89.6393 149.368C89.4873 149.16 89.2953 148.996 89.0633 148.876C88.8313 148.756 88.5793 148.696 88.3073 148.696C87.8753 148.696 87.5113 148.78 87.2153 148.948C86.9193 149.108 86.6953 149.348 86.5433 149.668C86.3913 149.98 86.3153 150.368 86.3153 150.832C86.3153 151.272 86.4073 151.656 86.5913 151.984C86.7753 152.304 87.0353 152.552 87.3713 152.728C87.7073 152.904 88.0953 152.992 88.5353 152.992C88.8473 152.992 89.1353 152.94 89.3993 152.836C89.6713 152.732 89.9633 152.544 90.2753 152.272L90.8993 153.148C90.7073 153.34 90.4713 153.508 90.1913 153.652C89.9193 153.796 89.6273 153.912 89.3153 154C89.0113 154.08 88.7113 154.12 88.4153 154.12ZM95.8699 156.64V147.7H97.1179V149.14L96.9259 149.032C96.9739 148.792 97.1099 148.564 97.3339 148.348C97.5579 148.124 97.8299 147.944 98.1499 147.808C98.4779 147.664 98.8139 147.592 99.1579 147.592C99.7259 147.592 100.23 147.732 100.67 148.012C101.11 148.292 101.458 148.676 101.714 149.164C101.97 149.652 102.098 150.212 102.098 150.844C102.098 151.468 101.97 152.028 101.714 152.524C101.466 153.012 101.122 153.4 100.682 153.688C100.242 153.968 99.7459 154.108 99.1939 154.108C98.8259 154.108 98.4699 154.036 98.1259 153.892C97.7819 153.74 97.4899 153.548 97.2499 153.316C97.0099 153.084 96.8619 152.844 96.8059 152.596L97.1179 152.428V156.64H95.8699ZM98.9899 152.968C99.3579 152.968 99.6859 152.876 99.9739 152.692C100.262 152.508 100.49 152.256 100.658 151.936C100.826 151.616 100.91 151.252 100.91 150.844C100.91 150.436 100.826 150.076 100.658 149.764C100.498 149.444 100.274 149.192 99.9859 149.008C99.6979 148.824 99.3659 148.732 98.9899 148.732C98.6139 148.732 98.2819 148.824 97.9939 149.008C97.7059 149.184 97.4779 149.432 97.3099 149.752C97.1419 150.072 97.0579 150.436 97.0579 150.844C97.0579 151.252 97.1419 151.616 97.3099 151.936C97.4779 152.256 97.7059 152.508 97.9939 152.692C98.2819 152.876 98.6139 152.968 98.9899 152.968ZM105.864 154.12C105.344 154.12 104.868 153.976 104.436 153.688C104.012 153.4 103.672 153.008 103.416 152.512C103.16 152.016 103.032 151.456 103.032 150.832C103.032 150.2 103.16 149.64 103.416 149.152C103.68 148.656 104.032 148.268 104.472 147.988C104.92 147.708 105.42 147.568 105.972 147.568C106.3 147.568 106.6 147.616 106.872 147.712C107.144 147.808 107.38 147.944 107.58 148.12C107.788 148.288 107.956 148.484 108.084 148.708C108.22 148.932 108.304 149.172 108.336 149.428L108.06 149.332V147.7H109.308V154H108.06V152.5L108.348 152.416C108.3 152.632 108.2 152.844 108.048 153.052C107.904 153.252 107.716 153.432 107.484 153.592C107.26 153.752 107.008 153.88 106.728 153.976C106.456 154.072 106.168 154.12 105.864 154.12ZM106.188 152.98C106.564 152.98 106.896 152.888 107.184 152.704C107.472 152.52 107.696 152.268 107.856 151.948C108.024 151.62 108.108 151.248 108.108 150.832C108.108 150.424 108.024 150.06 107.856 149.74C107.696 149.42 107.472 149.168 107.184 148.984C106.896 148.8 106.564 148.708 106.188 148.708C105.82 148.708 105.492 148.8 105.204 148.984C104.924 149.168 104.7 149.42 104.532 149.74C104.372 150.06 104.292 150.424 104.292 150.832C104.292 151.248 104.372 151.62 104.532 151.948C104.7 152.268 104.924 152.52 105.204 152.704C105.492 152.888 105.82 152.98 106.188 152.98ZM113.854 156.76C113.406 156.76 112.958 156.688 112.51 156.544C112.07 156.408 111.714 156.228 111.442 156.004L111.898 155.044C112.058 155.164 112.246 155.268 112.462 155.356C112.678 155.452 112.906 155.524 113.146 155.572C113.386 155.628 113.622 155.656 113.854 155.656C114.294 155.656 114.662 155.584 114.958 155.44C115.254 155.296 115.478 155.084 115.63 154.804C115.782 154.524 115.858 154.176 115.858 153.76V152.548L115.99 152.632C115.95 152.88 115.818 153.12 115.594 153.352C115.378 153.576 115.106 153.76 114.778 153.904C114.45 154.048 114.114 154.12 113.77 154.12C113.17 154.12 112.634 153.98 112.162 153.7C111.698 153.412 111.33 153.024 111.058 152.536C110.786 152.04 110.65 151.476 110.65 150.844C110.65 150.212 110.782 149.652 111.046 149.164C111.318 148.668 111.686 148.28 112.15 148C112.622 147.712 113.15 147.568 113.734 147.568C113.974 147.568 114.206 147.6 114.43 147.664C114.654 147.72 114.862 147.804 115.054 147.916C115.246 148.02 115.418 148.136 115.57 148.264C115.722 148.392 115.846 148.528 115.942 148.672C116.038 148.816 116.098 148.952 116.122 149.08L115.858 149.176V147.7H117.094V153.616C117.094 154.12 117.018 154.564 116.866 154.948C116.722 155.34 116.51 155.668 116.23 155.932C115.95 156.204 115.61 156.408 115.21 156.544C114.81 156.688 114.358 156.76 113.854 156.76ZM113.902 152.98C114.294 152.98 114.642 152.888 114.946 152.704C115.25 152.52 115.486 152.268 115.654 151.948C115.822 151.628 115.906 151.26 115.906 150.844C115.906 150.428 115.818 150.06 115.642 149.74C115.474 149.412 115.238 149.156 114.934 148.972C114.638 148.788 114.294 148.696 113.902 148.696C113.518 148.696 113.174 148.792 112.87 148.984C112.574 149.168 112.338 149.424 112.162 149.752C111.994 150.072 111.91 150.436 111.91 150.844C111.91 151.252 111.994 151.62 112.162 151.948C112.338 152.268 112.574 152.52 112.87 152.704C113.174 152.888 113.518 152.98 113.902 152.98ZM121.767 154.12C121.119 154.12 120.543 153.984 120.039 153.712C119.543 153.432 119.151 153.052 118.863 152.572C118.583 152.092 118.443 151.54 118.443 150.916C118.443 150.42 118.523 149.968 118.683 149.56C118.843 149.152 119.063 148.8 119.343 148.504C119.631 148.2 119.971 147.968 120.363 147.808C120.763 147.64 121.195 147.556 121.659 147.556C122.067 147.556 122.447 147.636 122.799 147.796C123.151 147.948 123.455 148.16 123.711 148.432C123.975 148.704 124.175 149.028 124.311 149.404C124.455 149.772 124.523 150.176 124.515 150.616L124.503 151.144H119.355L119.079 150.16H123.435L123.255 150.364V150.076C123.231 149.812 123.143 149.576 122.991 149.368C122.839 149.16 122.647 148.996 122.415 148.876C122.183 148.756 121.931 148.696 121.659 148.696C121.227 148.696 120.863 148.78 120.567 148.948C120.271 149.108 120.047 149.348 119.895 149.668C119.743 149.98 119.667 150.368 119.667 150.832C119.667 151.272 119.759 151.656 119.943 151.984C120.127 152.304 120.387 152.552 120.723 152.728C121.059 152.904 121.447 152.992 121.887 152.992C122.199 152.992 122.487 152.94 122.751 152.836C123.023 152.732 123.315 152.544 123.627 152.272L124.251 153.148C124.059 153.34 123.823 153.508 123.543 153.652C123.271 153.796 122.979 153.912 122.667 154C122.363 154.08 122.063 154.12 121.767 154.12ZM130.277 156.76L131.549 153.82L131.561 154.804L128.417 147.7H129.857L131.825 152.332C131.865 152.412 131.913 152.536 131.969 152.704C132.025 152.864 132.073 153.024 132.113 153.184L131.801 153.256C131.865 153.088 131.925 152.92 131.981 152.752C132.045 152.584 132.105 152.416 132.161 152.248L133.805 147.7H135.269L132.677 154L131.609 156.76H130.277ZM138.909 154.12C138.293 154.12 137.741 153.98 137.253 153.7C136.773 153.412 136.393 153.024 136.113 152.536C135.833 152.04 135.693 151.476 135.693 150.844C135.693 150.212 135.833 149.652 136.113 149.164C136.393 148.668 136.773 148.28 137.253 148C137.741 147.712 138.293 147.568 138.909 147.568C139.517 147.568 140.061 147.712 140.541 148C141.029 148.28 141.413 148.668 141.693 149.164C141.973 149.652 142.113 150.212 142.113 150.844C142.113 151.476 141.973 152.04 141.693 152.536C141.413 153.024 141.029 153.412 140.541 153.7C140.061 153.98 139.517 154.12 138.909 154.12ZM138.909 152.992C139.285 152.992 139.621 152.9 139.917 152.716C140.213 152.524 140.445 152.268 140.613 151.948C140.781 151.62 140.861 151.252 140.853 150.844C140.861 150.428 140.781 150.06 140.613 149.74C140.445 149.412 140.213 149.156 139.917 148.972C139.621 148.788 139.285 148.696 138.909 148.696C138.533 148.696 138.193 148.792 137.889 148.984C137.593 149.168 137.361 149.424 137.193 149.752C137.025 150.072 136.945 150.436 136.953 150.844C136.945 151.252 137.025 151.62 137.193 151.948C137.361 152.268 137.593 152.524 137.889 152.716C138.193 152.9 138.533 152.992 138.909 152.992ZM145.668 154.12C145.22 154.12 144.828 154.016 144.492 153.808C144.164 153.6 143.908 153.308 143.724 152.932C143.548 152.556 143.46 152.108 143.46 151.588V147.7H144.696V151.252C144.696 151.62 144.752 151.94 144.864 152.212C144.984 152.476 145.152 152.68 145.368 152.824C145.592 152.968 145.86 153.04 146.172 153.04C146.404 153.04 146.616 153.004 146.808 152.932C147 152.852 147.164 152.744 147.3 152.608C147.444 152.472 147.556 152.308 147.636 152.116C147.716 151.924 147.756 151.716 147.756 151.492V147.7H148.992V154H147.756V152.68L147.972 152.536C147.876 152.832 147.712 153.1 147.48 153.34C147.256 153.58 146.988 153.772 146.676 153.916C146.364 154.052 146.028 154.12 145.668 154.12ZM154.089 154V147.7H155.337V149.68L155.217 149.2C155.305 148.896 155.453 148.62 155.661 148.372C155.877 148.124 156.121 147.928 156.393 147.784C156.673 147.64 156.961 147.568 157.257 147.568C157.393 147.568 157.521 147.58 157.641 147.604C157.769 147.628 157.869 147.656 157.941 147.688L157.617 149.032C157.521 148.992 157.413 148.96 157.293 148.936C157.181 148.904 157.069 148.888 156.957 148.888C156.741 148.888 156.533 148.932 156.333 149.02C156.141 149.1 155.969 149.216 155.817 149.368C155.673 149.512 155.557 149.684 155.469 149.884C155.381 150.076 155.337 150.288 155.337 150.52V154H154.089ZM161.599 154.12C160.951 154.12 160.375 153.984 159.871 153.712C159.375 153.432 158.983 153.052 158.695 152.572C158.415 152.092 158.275 151.54 158.275 150.916C158.275 150.42 158.355 149.968 158.515 149.56C158.675 149.152 158.895 148.8 159.175 148.504C159.463 148.2 159.803 147.968 160.195 147.808C160.595 147.64 161.027 147.556 161.491 147.556C161.899 147.556 162.279 147.636 162.631 147.796C162.983 147.948 163.287 148.16 163.543 148.432C163.807 148.704 164.007 149.028 164.143 149.404C164.287 149.772 164.355 150.176 164.347 150.616L164.335 151.144H159.187L158.911 150.16H163.267L163.087 150.364V150.076C163.063 149.812 162.975 149.576 162.823 149.368C162.671 149.16 162.479 148.996 162.247 148.876C162.015 148.756 161.763 148.696 161.491 148.696C161.059 148.696 160.695 148.78 160.399 148.948C160.103 149.108 159.879 149.348 159.727 149.668C159.575 149.98 159.499 150.368 159.499 150.832C159.499 151.272 159.591 151.656 159.775 151.984C159.959 152.304 160.219 152.552 160.555 152.728C160.891 152.904 161.279 152.992 161.719 152.992C162.031 152.992 162.319 152.94 162.583 152.836C162.855 152.732 163.147 152.544 163.459 152.272L164.083 153.148C163.891 153.34 163.655 153.508 163.375 153.652C163.103 153.796 162.811 153.912 162.499 154C162.195 154.08 161.895 154.12 161.599 154.12ZM170.286 156.64V152.5H170.526C170.526 152.692 170.462 152.884 170.334 153.076C170.206 153.26 170.034 153.432 169.818 153.592C169.602 153.752 169.362 153.88 169.098 153.976C168.834 154.072 168.562 154.12 168.282 154.12C167.714 154.12 167.206 153.98 166.758 153.7C166.31 153.412 165.954 153.024 165.69 152.536C165.434 152.04 165.306 151.476 165.306 150.844C165.306 150.212 165.434 149.652 165.69 149.164C165.946 148.668 166.294 148.28 166.734 148C167.182 147.712 167.686 147.568 168.246 147.568C168.558 147.568 168.854 147.62 169.134 147.724C169.422 147.828 169.678 147.964 169.902 148.132C170.134 148.3 170.314 148.488 170.442 148.696C170.578 148.896 170.646 149.1 170.646 149.308L170.286 149.332V147.688H171.522V156.64H170.286ZM168.414 152.98C168.79 152.98 169.122 152.888 169.41 152.704C169.698 152.52 169.922 152.268 170.082 151.948C170.25 151.628 170.334 151.26 170.334 150.844C170.334 150.428 170.25 150.06 170.082 149.74C169.922 149.412 169.698 149.156 169.41 148.972C169.122 148.788 168.79 148.696 168.414 148.696C168.038 148.696 167.706 148.792 167.418 148.984C167.13 149.168 166.902 149.424 166.734 149.752C166.574 150.072 166.494 150.436 166.494 150.844C166.494 151.252 166.574 151.62 166.734 151.948C166.902 152.268 167.13 152.52 167.418 152.704C167.706 152.888 168.038 152.98 168.414 152.98ZM175.457 154.12C175.009 154.12 174.617 154.016 174.281 153.808C173.953 153.6 173.697 153.308 173.513 152.932C173.337 152.556 173.249 152.108 173.249 151.588V147.7H174.485V151.252C174.485 151.62 174.541 151.94 174.653 152.212C174.773 152.476 174.941 152.68 175.157 152.824C175.381 152.968 175.649 153.04 175.961 153.04C176.193 153.04 176.405 153.004 176.597 152.932C176.789 152.852 176.953 152.744 177.089 152.608C177.233 152.472 177.345 152.308 177.425 152.116C177.505 151.924 177.545 151.716 177.545 151.492V147.7H178.781V154H177.545V152.68L177.761 152.536C177.665 152.832 177.501 153.1 177.269 153.34C177.045 153.58 176.777 153.772 176.465 153.916C176.153 154.052 175.817 154.12 175.457 154.12ZM183.454 154.12C182.806 154.12 182.23 153.984 181.726 153.712C181.23 153.432 180.838 153.052 180.55 152.572C180.27 152.092 180.13 151.54 180.13 150.916C180.13 150.42 180.21 149.968 180.37 149.56C180.53 149.152 180.75 148.8 181.03 148.504C181.318 148.2 181.658 147.968 182.05 147.808C182.45 147.64 182.882 147.556 183.346 147.556C183.754 147.556 184.134 147.636 184.486 147.796C184.838 147.948 185.142 148.16 185.398 148.432C185.662 148.704 185.862 149.028 185.998 149.404C186.142 149.772 186.21 150.176 186.202 150.616L186.19 151.144H181.042L180.766 150.16H185.122L184.942 150.364V150.076C184.918 149.812 184.83 149.576 184.678 149.368C184.526 149.16 184.334 148.996 184.102 148.876C183.87 148.756 183.618 148.696 183.346 148.696C182.914 148.696 182.55 148.78 182.254 148.948C181.958 149.108 181.734 149.348 181.582 149.668C181.43 149.98 181.354 150.368 181.354 150.832C181.354 151.272 181.446 151.656 181.63 151.984C181.814 152.304 182.074 152.552 182.41 152.728C182.746 152.904 183.134 152.992 183.574 152.992C183.886 152.992 184.174 152.94 184.438 152.836C184.71 152.732 185.002 152.544 185.314 152.272L185.938 153.148C185.746 153.34 185.51 153.508 185.23 153.652C184.958 153.796 184.666 153.912 184.354 154C184.05 154.08 183.75 154.12 183.454 154.12ZM189.646 154.12C189.118 154.12 188.642 154.028 188.218 153.844C187.794 153.66 187.442 153.388 187.162 153.028L188.002 152.308C188.242 152.588 188.502 152.792 188.782 152.92C189.07 153.04 189.394 153.1 189.754 153.1C189.898 153.1 190.03 153.084 190.15 153.052C190.278 153.012 190.386 152.956 190.474 152.884C190.57 152.812 190.642 152.728 190.69 152.632C190.738 152.528 190.762 152.416 190.762 152.296C190.762 152.088 190.686 151.92 190.534 151.792C190.454 151.736 190.326 151.676 190.15 151.612C189.982 151.54 189.762 151.468 189.49 151.396C189.026 151.276 188.646 151.14 188.35 150.988C188.054 150.836 187.826 150.664 187.666 150.472C187.546 150.32 187.458 150.156 187.402 149.98C187.346 149.796 187.318 149.596 187.318 149.38C187.318 149.116 187.374 148.876 187.486 148.66C187.606 148.436 187.766 148.244 187.966 148.084C188.174 147.916 188.414 147.788 188.686 147.7C188.966 147.612 189.262 147.568 189.574 147.568C189.87 147.568 190.162 147.608 190.45 147.688C190.746 147.768 191.018 147.884 191.266 148.036C191.514 148.188 191.722 148.368 191.89 148.576L191.182 149.356C191.03 149.204 190.862 149.072 190.678 148.96C190.502 148.84 190.322 148.748 190.138 148.684C189.954 148.62 189.786 148.588 189.634 148.588C189.466 148.588 189.314 148.604 189.178 148.636C189.042 148.668 188.926 148.716 188.83 148.78C188.742 148.844 188.674 148.924 188.626 149.02C188.578 149.116 188.554 149.224 188.554 149.344C188.562 149.448 188.586 149.548 188.626 149.644C188.674 149.732 188.738 149.808 188.818 149.872C188.906 149.936 189.038 150.004 189.214 150.076C189.39 150.148 189.614 150.216 189.886 150.28C190.286 150.384 190.614 150.5 190.87 150.628C191.134 150.748 191.342 150.888 191.494 151.048C191.654 151.2 191.766 151.376 191.83 151.576C191.894 151.776 191.926 152 191.926 152.248C191.926 152.608 191.822 152.932 191.614 153.22C191.414 153.5 191.142 153.72 190.798 153.88C190.454 154.04 190.07 154.12 189.646 154.12ZM194.068 154V146.092H195.304V154H194.068ZM192.76 148.9V147.7H196.768V148.9H192.76ZM200.775 154.12C200.127 154.12 199.551 153.984 199.047 153.712C198.551 153.432 198.159 153.052 197.871 152.572C197.591 152.092 197.451 151.54 197.451 150.916C197.451 150.42 197.531 149.968 197.691 149.56C197.851 149.152 198.071 148.8 198.351 148.504C198.639 148.2 198.979 147.968 199.371 147.808C199.771 147.64 200.203 147.556 200.667 147.556C201.075 147.556 201.455 147.636 201.807 147.796C202.159 147.948 202.463 148.16 202.719 148.432C202.983 148.704 203.183 149.028 203.319 149.404C203.463 149.772 203.531 150.176 203.523 150.616L203.511 151.144H198.363L198.087 150.16H202.443L202.263 150.364V150.076C202.239 149.812 202.151 149.576 201.999 149.368C201.847 149.16 201.655 148.996 201.423 148.876C201.191 148.756 200.939 148.696 200.667 148.696C200.235 148.696 199.871 148.78 199.575 148.948C199.279 149.108 199.055 149.348 198.903 149.668C198.751 149.98 198.675 150.368 198.675 150.832C198.675 151.272 198.767 151.656 198.951 151.984C199.135 152.304 199.395 152.552 199.731 152.728C200.067 152.904 200.455 152.992 200.895 152.992C201.207 152.992 201.495 152.94 201.759 152.836C202.031 152.732 202.323 152.544 202.635 152.272L203.259 153.148C203.067 153.34 202.831 153.508 202.551 153.652C202.279 153.796 201.987 153.912 201.675 154C201.371 154.08 201.071 154.12 200.775 154.12ZM207.494 154.12C206.918 154.12 206.402 153.98 205.946 153.7C205.498 153.412 205.142 153.024 204.878 152.536C204.614 152.04 204.482 151.476 204.482 150.844C204.482 150.212 204.61 149.652 204.866 149.164C205.13 148.668 205.486 148.28 205.934 148C206.382 147.712 206.89 147.568 207.458 147.568C207.77 147.568 208.07 147.62 208.358 147.724C208.654 147.82 208.918 147.956 209.15 148.132C209.382 148.3 209.562 148.488 209.69 148.696C209.826 148.896 209.894 149.1 209.894 149.308L209.534 149.332V145.12H210.77V154H209.534V152.5H209.774C209.774 152.692 209.71 152.884 209.582 153.076C209.454 153.26 209.282 153.432 209.066 153.592C208.858 153.752 208.614 153.88 208.334 153.976C208.062 154.072 207.782 154.12 207.494 154.12ZM207.662 153.052C208.038 153.052 208.37 152.956 208.658 152.764C208.946 152.572 209.17 152.312 209.33 151.984C209.498 151.648 209.582 151.268 209.582 150.844C209.582 150.42 209.498 150.044 209.33 149.716C209.17 149.38 208.946 149.116 208.658 148.924C208.37 148.732 208.038 148.636 207.662 148.636C207.286 148.636 206.954 148.732 206.666 148.924C206.378 149.116 206.15 149.38 205.982 149.716C205.822 150.044 205.742 150.42 205.742 150.844C205.742 151.268 205.822 151.648 205.982 151.984C206.15 152.312 206.378 152.572 206.666 152.764C206.954 152.956 207.286 153.052 207.662 153.052ZM218.511 154.12C217.927 154.12 217.403 153.976 216.939 153.688C216.483 153.4 216.119 153.008 215.847 152.512C215.583 152.016 215.451 151.46 215.451 150.844C215.451 150.228 215.583 149.672 215.847 149.176C216.119 148.68 216.483 148.288 216.939 148C217.403 147.712 217.927 147.568 218.511 147.568C219.071 147.568 219.579 147.684 220.035 147.916C220.499 148.14 220.851 148.448 221.091 148.84L220.407 149.68C220.279 149.496 220.115 149.328 219.915 149.176C219.715 149.024 219.503 148.904 219.279 148.816C219.055 148.728 218.839 148.684 218.631 148.684C218.247 148.684 217.903 148.78 217.599 148.972C217.303 149.156 217.067 149.412 216.891 149.74C216.715 150.068 216.627 150.436 216.627 150.844C216.627 151.252 216.719 151.62 216.903 151.948C217.087 152.268 217.331 152.524 217.635 152.716C217.939 152.908 218.275 153.004 218.643 153.004C218.859 153.004 219.067 152.968 219.267 152.896C219.475 152.824 219.675 152.716 219.867 152.572C220.059 152.428 220.239 152.252 220.407 152.044L221.091 152.884C220.835 153.244 220.467 153.54 219.987 153.772C219.515 154.004 219.023 154.12 218.511 154.12ZM225.089 154.12C224.473 154.12 223.921 153.98 223.433 153.7C222.953 153.412 222.573 153.024 222.293 152.536C222.013 152.04 221.873 151.476 221.873 150.844C221.873 150.212 222.013 149.652 222.293 149.164C222.573 148.668 222.953 148.28 223.433 148C223.921 147.712 224.473 147.568 225.089 147.568C225.697 147.568 226.241 147.712 226.721 148C227.209 148.28 227.593 148.668 227.873 149.164C228.153 149.652 228.293 150.212 228.293 150.844C228.293 151.476 228.153 152.04 227.873 152.536C227.593 153.024 227.209 153.412 226.721 153.7C226.241 153.98 225.697 154.12 225.089 154.12ZM225.089 152.992C225.465 152.992 225.801 152.9 226.097 152.716C226.393 152.524 226.625 152.268 226.793 151.948C226.961 151.62 227.041 151.252 227.033 150.844C227.041 150.428 226.961 150.06 226.793 149.74C226.625 149.412 226.393 149.156 226.097 148.972C225.801 148.788 225.465 148.696 225.089 148.696C224.713 148.696 224.373 148.792 224.069 148.984C223.773 149.168 223.541 149.424 223.373 149.752C223.205 150.072 223.125 150.436 223.133 150.844C223.125 151.252 223.205 151.62 223.373 151.948C223.541 152.268 223.773 152.524 224.069 152.716C224.373 152.9 224.713 152.992 225.089 152.992ZM231.847 154.12C231.399 154.12 231.007 154.016 230.671 153.808C230.343 153.6 230.087 153.308 229.903 152.932C229.727 152.556 229.639 152.108 229.639 151.588V147.7H230.875V151.252C230.875 151.62 230.931 151.94 231.043 152.212C231.163 152.476 231.331 152.68 231.547 152.824C231.771 152.968 232.039 153.04 232.351 153.04C232.583 153.04 232.795 153.004 232.987 152.932C233.179 152.852 233.343 152.744 233.479 152.608C233.623 152.472 233.735 152.308 233.815 152.116C233.895 151.924 233.935 151.716 233.935 151.492V147.7H235.171V154H233.935V152.68L234.151 152.536C234.055 152.832 233.891 153.1 233.659 153.34C233.435 153.58 233.167 153.772 232.855 153.916C232.543 154.052 232.207 154.12 231.847 154.12ZM236.929 154V145.12H238.165V154H236.929ZM242.428 154.12C241.852 154.12 241.336 153.98 240.88 153.7C240.432 153.412 240.076 153.024 239.812 152.536C239.548 152.04 239.416 151.476 239.416 150.844C239.416 150.212 239.544 149.652 239.8 149.164C240.064 148.668 240.42 148.28 240.868 148C241.316 147.712 241.824 147.568 242.392 147.568C242.704 147.568 243.004 147.62 243.292 147.724C243.588 147.82 243.852 147.956 244.084 148.132C244.316 148.3 244.496 148.488 244.624 148.696C244.76 148.896 244.828 149.1 244.828 149.308L244.468 149.332V145.12H245.704V154H244.468V152.5H244.708C244.708 152.692 244.644 152.884 244.516 153.076C244.388 153.26 244.216 153.432 244 153.592C243.792 153.752 243.548 153.88 243.268 153.976C242.996 154.072 242.716 154.12 242.428 154.12ZM242.596 153.052C242.972 153.052 243.304 152.956 243.592 152.764C243.88 152.572 244.104 152.312 244.264 151.984C244.432 151.648 244.516 151.268 244.516 150.844C244.516 150.42 244.432 150.044 244.264 149.716C244.104 149.38 243.88 149.116 243.592 148.924C243.304 148.732 242.972 148.636 242.596 148.636C242.22 148.636 241.888 148.732 241.6 148.924C241.312 149.116 241.084 149.38 240.916 149.716C240.756 150.044 240.676 150.42 240.676 150.844C240.676 151.268 240.756 151.648 240.916 151.984C241.084 152.312 241.312 152.572 241.6 152.764C241.888 152.956 242.22 153.052 242.596 153.052ZM250.768 154V147.7H252.004V148.996L251.788 149.14C251.868 148.86 252.024 148.604 252.256 148.372C252.488 148.132 252.764 147.94 253.084 147.796C253.404 147.644 253.732 147.568 254.068 147.568C254.548 147.568 254.948 147.664 255.268 147.856C255.588 148.04 255.828 148.324 255.988 148.708C256.148 149.092 256.228 149.576 256.228 150.16V154H254.992V150.244C254.992 149.884 254.944 149.588 254.848 149.356C254.752 149.116 254.604 148.944 254.404 148.84C254.204 148.728 253.956 148.68 253.66 148.696C253.42 148.696 253.2 148.736 253 148.816C252.8 148.888 252.624 148.992 252.472 149.128C252.328 149.264 252.212 149.424 252.124 149.608C252.044 149.784 252.004 149.976 252.004 150.184V154H251.392C251.288 154 251.184 154 251.08 154C250.976 154 250.872 154 250.768 154ZM260.737 154.12C260.121 154.12 259.569 153.98 259.081 153.7C258.601 153.412 258.221 153.024 257.941 152.536C257.661 152.04 257.521 151.476 257.521 150.844C257.521 150.212 257.661 149.652 257.941 149.164C258.221 148.668 258.601 148.28 259.081 148C259.569 147.712 260.121 147.568 260.737 147.568C261.345 147.568 261.889 147.712 262.369 148C262.857 148.28 263.241 148.668 263.521 149.164C263.801 149.652 263.941 150.212 263.941 150.844C263.941 151.476 263.801 152.04 263.521 152.536C263.241 153.024 262.857 153.412 262.369 153.7C261.889 153.98 261.345 154.12 260.737 154.12ZM260.737 152.992C261.113 152.992 261.449 152.9 261.745 152.716C262.041 152.524 262.273 152.268 262.441 151.948C262.609 151.62 262.689 151.252 262.681 150.844C262.689 150.428 262.609 150.06 262.441 149.74C262.273 149.412 262.041 149.156 261.745 148.972C261.449 148.788 261.113 148.696 260.737 148.696C260.361 148.696 260.021 148.792 259.717 148.984C259.421 149.168 259.189 149.424 259.021 149.752C258.853 150.072 258.773 150.436 258.781 150.844C258.773 151.252 258.853 151.62 259.021 151.948C259.189 152.268 259.421 152.524 259.717 152.716C260.021 152.9 260.361 152.992 260.737 152.992ZM266.068 154V146.092H267.304V154H266.068ZM264.76 148.9V147.7H268.768V148.9H264.76ZM276.569 154.12C276.297 154.12 276.025 154.076 275.753 153.988C275.489 153.9 275.245 153.784 275.021 153.64C274.805 153.488 274.621 153.324 274.469 153.148C274.325 152.964 274.229 152.78 274.181 152.596L274.493 152.428V153.964H273.257V145.12H274.493V149.14L274.301 149.032C274.341 148.848 274.429 148.672 274.565 148.504C274.701 148.328 274.873 148.172 275.081 148.036C275.297 147.892 275.529 147.78 275.777 147.7C276.025 147.612 276.277 147.568 276.533 147.568C277.101 147.568 277.605 147.708 278.045 147.988C278.485 148.268 278.833 148.656 279.089 149.152C279.345 149.64 279.473 150.2 279.473 150.832C279.473 151.464 279.345 152.028 279.089 152.524C278.841 153.02 278.497 153.412 278.057 153.7C277.617 153.98 277.121 154.12 276.569 154.12ZM276.365 152.992C276.733 152.992 277.061 152.9 277.349 152.716C277.637 152.524 277.865 152.268 278.033 151.948C278.201 151.62 278.285 151.248 278.285 150.832C278.285 150.424 278.201 150.06 278.033 149.74C277.873 149.412 277.649 149.156 277.361 148.972C277.073 148.788 276.741 148.696 276.365 148.696C275.989 148.696 275.657 148.788 275.369 148.972C275.081 149.156 274.853 149.412 274.685 149.74C274.517 150.06 274.433 150.424 274.433 150.832C274.433 151.248 274.517 151.62 274.685 151.948C274.853 152.268 275.081 152.524 275.369 152.716C275.657 152.9 275.989 152.992 276.365 152.992ZM283.755 154.12C283.107 154.12 282.531 153.984 282.027 153.712C281.531 153.432 281.139 153.052 280.851 152.572C280.571 152.092 280.431 151.54 280.431 150.916C280.431 150.42 280.511 149.968 280.671 149.56C280.831 149.152 281.051 148.8 281.331 148.504C281.619 148.2 281.959 147.968 282.351 147.808C282.751 147.64 283.183 147.556 283.647 147.556C284.055 147.556 284.435 147.636 284.787 147.796C285.139 147.948 285.443 148.16 285.699 148.432C285.963 148.704 286.163 149.028 286.299 149.404C286.443 149.772 286.511 150.176 286.503 150.616L286.491 151.144H281.343L281.067 150.16H285.423L285.243 150.364V150.076C285.219 149.812 285.131 149.576 284.979 149.368C284.827 149.16 284.635 148.996 284.403 148.876C284.171 148.756 283.919 148.696 283.647 148.696C283.215 148.696 282.851 148.78 282.555 148.948C282.259 149.108 282.035 149.348 281.883 149.668C281.731 149.98 281.655 150.368 281.655 150.832C281.655 151.272 281.747 151.656 281.931 151.984C282.115 152.304 282.375 152.552 282.711 152.728C283.047 152.904 283.435 152.992 283.875 152.992C284.187 152.992 284.475 152.94 284.739 152.836C285.011 152.732 285.303 152.544 285.615 152.272L286.239 153.148C286.047 153.34 285.811 153.508 285.531 153.652C285.259 153.796 284.967 153.912 284.655 154C284.351 154.08 284.051 154.12 283.755 154.12ZM291.894 154V146.992C291.894 146.632 291.974 146.312 292.134 146.032C292.294 145.752 292.514 145.532 292.794 145.372C293.074 145.212 293.398 145.132 293.766 145.132C294.022 145.132 294.262 145.18 294.486 145.276C294.71 145.372 294.89 145.5 295.026 145.66L294.606 146.608C294.502 146.512 294.386 146.436 294.258 146.38C294.138 146.316 294.022 146.284 293.91 146.284C293.742 146.284 293.598 146.312 293.478 146.368C293.366 146.416 293.282 146.496 293.226 146.608C293.17 146.712 293.142 146.84 293.142 146.992V154H292.518C292.414 154 292.31 154 292.206 154C292.102 154 291.998 154 291.894 154ZM290.886 148.948V147.808H294.63V148.948H290.886ZM298.518 154.12C297.902 154.12 297.35 153.98 296.862 153.7C296.382 153.412 296.002 153.024 295.722 152.536C295.442 152.04 295.302 151.476 295.302 150.844C295.302 150.212 295.442 149.652 295.722 149.164C296.002 148.668 296.382 148.28 296.862 148C297.35 147.712 297.902 147.568 298.518 147.568C299.126 147.568 299.67 147.712 300.15 148C300.638 148.28 301.022 148.668 301.302 149.164C301.582 149.652 301.722 150.212 301.722 150.844C301.722 151.476 301.582 152.04 301.302 152.536C301.022 153.024 300.638 153.412 300.15 153.7C299.67 153.98 299.126 154.12 298.518 154.12ZM298.518 152.992C298.894 152.992 299.23 152.9 299.526 152.716C299.822 152.524 300.054 152.268 300.222 151.948C300.39 151.62 300.47 151.252 300.462 150.844C300.47 150.428 300.39 150.06 300.222 149.74C300.054 149.412 299.822 149.156 299.526 148.972C299.23 148.788 298.894 148.696 298.518 148.696C298.142 148.696 297.802 148.792 297.498 148.984C297.202 149.168 296.97 149.424 296.802 149.752C296.634 150.072 296.554 150.436 296.562 150.844C296.554 151.252 296.634 151.62 296.802 151.948C296.97 152.268 297.202 152.524 297.498 152.716C297.802 152.9 298.142 152.992 298.518 152.992ZM305.277 154.12C304.829 154.12 304.437 154.016 304.101 153.808C303.773 153.6 303.517 153.308 303.333 152.932C303.157 152.556 303.069 152.108 303.069 151.588V147.7H304.305V151.252C304.305 151.62 304.361 151.94 304.473 152.212C304.593 152.476 304.761 152.68 304.977 152.824C305.201 152.968 305.469 153.04 305.781 153.04C306.013 153.04 306.225 153.004 306.417 152.932C306.609 152.852 306.773 152.744 306.909 152.608C307.053 152.472 307.165 152.308 307.245 152.116C307.325 151.924 307.365 151.716 307.365 151.492V147.7H308.601V154H307.365V152.68L307.581 152.536C307.485 152.832 307.321 153.1 307.089 153.34C306.865 153.58 306.597 153.772 306.285 153.916C305.973 154.052 305.637 154.12 305.277 154.12ZM310.335 154V147.7H311.571V148.996L311.355 149.14C311.435 148.86 311.591 148.604 311.823 148.372C312.055 148.132 312.331 147.94 312.651 147.796C312.971 147.644 313.299 147.568 313.635 147.568C314.115 147.568 314.515 147.664 314.835 147.856C315.155 148.04 315.395 148.324 315.555 148.708C315.715 149.092 315.795 149.576 315.795 150.16V154H314.559V150.244C314.559 149.884 314.511 149.588 314.415 149.356C314.319 149.116 314.171 148.944 313.971 148.84C313.771 148.728 313.523 148.68 313.227 148.696C312.987 148.696 312.767 148.736 312.567 148.816C312.367 148.888 312.191 148.992 312.039 149.128C311.895 149.264 311.779 149.424 311.691 149.608C311.611 149.784 311.571 149.976 311.571 150.184V154H310.959C310.855 154 310.751 154 310.647 154C310.543 154 310.439 154 310.335 154ZM320.099 154.12C319.523 154.12 319.007 153.98 318.551 153.7C318.103 153.412 317.747 153.024 317.483 152.536C317.219 152.04 317.087 151.476 317.087 150.844C317.087 150.212 317.215 149.652 317.471 149.164C317.735 148.668 318.091 148.28 318.539 148C318.987 147.712 319.495 147.568 320.063 147.568C320.375 147.568 320.675 147.62 320.963 147.724C321.259 147.82 321.523 147.956 321.755 148.132C321.987 148.3 322.167 148.488 322.295 148.696C322.431 148.896 322.499 149.1 322.499 149.308L322.139 149.332V145.12H323.375V154H322.139V152.5H322.379C322.379 152.692 322.315 152.884 322.187 153.076C322.059 153.26 321.887 153.432 321.671 153.592C321.463 153.752 321.219 153.88 320.939 153.976C320.667 154.072 320.387 154.12 320.099 154.12ZM320.267 153.052C320.643 153.052 320.975 152.956 321.263 152.764C321.551 152.572 321.775 152.312 321.935 151.984C322.103 151.648 322.187 151.268 322.187 150.844C322.187 150.42 322.103 150.044 321.935 149.716C321.775 149.38 321.551 149.116 321.263 148.924C320.975 148.732 320.643 148.636 320.267 148.636C319.891 148.636 319.559 148.732 319.271 148.924C318.983 149.116 318.755 149.38 318.587 149.716C318.427 150.044 318.347 150.42 318.347 150.844C318.347 151.268 318.427 151.648 318.587 151.984C318.755 152.312 318.983 152.572 319.271 152.764C319.559 152.956 319.891 153.052 320.267 153.052ZM69.0925 171.64V162.7H70.3405V164.14L70.1485 164.032C70.1965 163.792 70.3325 163.564 70.5565 163.348C70.7805 163.124 71.0525 162.944 71.3725 162.808C71.7005 162.664 72.0365 162.592 72.3805 162.592C72.9485 162.592 73.4525 162.732 73.8925 163.012C74.3325 163.292 74.6805 163.676 74.9365 164.164C75.1925 164.652 75.3205 165.212 75.3205 165.844C75.3205 166.468 75.1925 167.028 74.9365 167.524C74.6885 168.012 74.3445 168.4 73.9045 168.688C73.4645 168.968 72.9685 169.108 72.4165 169.108C72.0485 169.108 71.6925 169.036 71.3485 168.892C71.0045 168.74 70.7125 168.548 70.4725 168.316C70.2325 168.084 70.0845 167.844 70.0285 167.596L70.3405 167.428V171.64H69.0925ZM72.2125 167.968C72.5805 167.968 72.9085 167.876 73.1965 167.692C73.4845 167.508 73.7125 167.256 73.8805 166.936C74.0485 166.616 74.1325 166.252 74.1325 165.844C74.1325 165.436 74.0485 165.076 73.8805 164.764C73.7205 164.444 73.4965 164.192 73.2085 164.008C72.9205 163.824 72.5885 163.732 72.2125 163.732C71.8365 163.732 71.5045 163.824 71.2165 164.008C70.9285 164.184 70.7005 164.432 70.5325 164.752C70.3645 165.072 70.2805 165.436 70.2805 165.844C70.2805 166.252 70.3645 166.616 70.5325 166.936C70.7005 167.256 70.9285 167.508 71.2165 167.692C71.5045 167.876 71.8365 167.968 72.2125 167.968ZM76.6868 169V160.12H77.9228V169H76.6868ZM82.4974 169.12C81.8494 169.12 81.2734 168.984 80.7694 168.712C80.2734 168.432 79.8814 168.052 79.5934 167.572C79.3134 167.092 79.1734 166.54 79.1734 165.916C79.1734 165.42 79.2534 164.968 79.4134 164.56C79.5734 164.152 79.7934 163.8 80.0734 163.504C80.3614 163.2 80.7014 162.968 81.0934 162.808C81.4934 162.64 81.9254 162.556 82.3894 162.556C82.7974 162.556 83.1774 162.636 83.5294 162.796C83.8814 162.948 84.1854 163.16 84.4414 163.432C84.7054 163.704 84.9054 164.028 85.0414 164.404C85.1854 164.772 85.2534 165.176 85.2454 165.616L85.2334 166.144H80.0854L79.8094 165.16H84.1654L83.9854 165.364V165.076C83.9614 164.812 83.8734 164.576 83.7214 164.368C83.5694 164.16 83.3774 163.996 83.1454 163.876C82.9134 163.756 82.6614 163.696 82.3894 163.696C81.9574 163.696 81.5934 163.78 81.2974 163.948C81.0014 164.108 80.7774 164.348 80.6254 164.668C80.4734 164.98 80.3974 165.368 80.3974 165.832C80.3974 166.272 80.4894 166.656 80.6734 166.984C80.8574 167.304 81.1174 167.552 81.4534 167.728C81.7894 167.904 82.1774 167.992 82.6174 167.992C82.9294 167.992 83.2174 167.94 83.4814 167.836C83.7534 167.732 84.0454 167.544 84.3574 167.272L84.9814 168.148C84.7894 168.34 84.5534 168.508 84.2734 168.652C84.0014 168.796 83.7094 168.912 83.3974 169C83.0934 169.08 82.7934 169.12 82.4974 169.12ZM89.0126 169.12C88.4926 169.12 88.0166 168.976 87.5846 168.688C87.1606 168.4 86.8206 168.008 86.5646 167.512C86.3086 167.016 86.1806 166.456 86.1806 165.832C86.1806 165.2 86.3086 164.64 86.5646 164.152C86.8286 163.656 87.1806 163.268 87.6206 162.988C88.0686 162.708 88.5686 162.568 89.1206 162.568C89.4486 162.568 89.7486 162.616 90.0206 162.712C90.2926 162.808 90.5286 162.944 90.7286 163.12C90.9366 163.288 91.1046 163.484 91.2326 163.708C91.3686 163.932 91.4526 164.172 91.4846 164.428L91.2086 164.332V162.7H92.4566V169H91.2086V167.5L91.4966 167.416C91.4486 167.632 91.3486 167.844 91.1966 168.052C91.0526 168.252 90.8646 168.432 90.6326 168.592C90.4086 168.752 90.1566 168.88 89.8766 168.976C89.6046 169.072 89.3166 169.12 89.0126 169.12ZM89.3366 167.98C89.7126 167.98 90.0446 167.888 90.3326 167.704C90.6206 167.52 90.8446 167.268 91.0046 166.948C91.1726 166.62 91.2566 166.248 91.2566 165.832C91.2566 165.424 91.1726 165.06 91.0046 164.74C90.8446 164.42 90.6206 164.168 90.3326 163.984C90.0446 163.8 89.7126 163.708 89.3366 163.708C88.9686 163.708 88.6406 163.8 88.3526 163.984C88.0726 164.168 87.8486 164.42 87.6806 164.74C87.5206 165.06 87.4406 165.424 87.4406 165.832C87.4406 166.248 87.5206 166.62 87.6806 166.948C87.8486 167.268 88.0726 167.52 88.3526 167.704C88.6406 167.888 88.9686 167.98 89.3366 167.98ZM96.2824 169.12C95.7544 169.12 95.2784 169.028 94.8544 168.844C94.4304 168.66 94.0784 168.388 93.7984 168.028L94.6384 167.308C94.8784 167.588 95.1384 167.792 95.4184 167.92C95.7064 168.04 96.0304 168.1 96.3904 168.1C96.5344 168.1 96.6664 168.084 96.7864 168.052C96.9144 168.012 97.0224 167.956 97.1104 167.884C97.2064 167.812 97.2784 167.728 97.3264 167.632C97.3744 167.528 97.3984 167.416 97.3984 167.296C97.3984 167.088 97.3224 166.92 97.1704 166.792C97.0904 166.736 96.9624 166.676 96.7864 166.612C96.6184 166.54 96.3984 166.468 96.1264 166.396C95.6624 166.276 95.2824 166.14 94.9864 165.988C94.6904 165.836 94.4624 165.664 94.3024 165.472C94.1824 165.32 94.0944 165.156 94.0384 164.98C93.9824 164.796 93.9544 164.596 93.9544 164.38C93.9544 164.116 94.0104 163.876 94.1224 163.66C94.2424 163.436 94.4024 163.244 94.6024 163.084C94.8104 162.916 95.0504 162.788 95.3224 162.7C95.6024 162.612 95.8984 162.568 96.2104 162.568C96.5064 162.568 96.7984 162.608 97.0864 162.688C97.3824 162.768 97.6544 162.884 97.9024 163.036C98.1504 163.188 98.3584 163.368 98.5264 163.576L97.8184 164.356C97.6664 164.204 97.4984 164.072 97.3144 163.96C97.1384 163.84 96.9584 163.748 96.7744 163.684C96.5904 163.62 96.4224 163.588 96.2704 163.588C96.1024 163.588 95.9504 163.604 95.8144 163.636C95.6784 163.668 95.5624 163.716 95.4664 163.78C95.3784 163.844 95.3104 163.924 95.2624 164.02C95.2144 164.116 95.1904 164.224 95.1904 164.344C95.1984 164.448 95.2224 164.548 95.2624 164.644C95.3104 164.732 95.3744 164.808 95.4544 164.872C95.5424 164.936 95.6744 165.004 95.8504 165.076C96.0264 165.148 96.2504 165.216 96.5224 165.28C96.9224 165.384 97.2504 165.5 97.5064 165.628C97.7704 165.748 97.9784 165.888 98.1304 166.048C98.2904 166.2 98.4024 166.376 98.4664 166.576C98.5304 166.776 98.5624 167 98.5624 167.248C98.5624 167.608 98.4584 167.932 98.2504 168.22C98.0504 168.5 97.7784 168.72 97.4344 168.88C97.0904 169.04 96.7064 169.12 96.2824 169.12ZM102.865 169.12C102.217 169.12 101.641 168.984 101.137 168.712C100.641 168.432 100.249 168.052 99.9605 167.572C99.6805 167.092 99.5405 166.54 99.5405 165.916C99.5405 165.42 99.6205 164.968 99.7805 164.56C99.9405 164.152 100.161 163.8 100.441 163.504C100.729 163.2 101.069 162.968 101.461 162.808C101.861 162.64 102.293 162.556 102.757 162.556C103.165 162.556 103.545 162.636 103.897 162.796C104.249 162.948 104.553 163.16 104.809 163.432C105.073 163.704 105.273 164.028 105.409 164.404C105.553 164.772 105.621 165.176 105.613 165.616L105.601 166.144H100.453L100.177 165.16H104.533L104.353 165.364V165.076C104.329 164.812 104.241 164.576 104.089 164.368C103.937 164.16 103.745 163.996 103.513 163.876C103.281 163.756 103.029 163.696 102.757 163.696C102.325 163.696 101.961 163.78 101.665 163.948C101.369 164.108 101.145 164.348 100.993 164.668C100.841 164.98 100.765 165.368 100.765 165.832C100.765 166.272 100.857 166.656 101.041 166.984C101.225 167.304 101.485 167.552 101.821 167.728C102.157 167.904 102.545 167.992 102.985 167.992C103.297 167.992 103.585 167.94 103.849 167.836C104.121 167.732 104.413 167.544 104.725 167.272L105.349 168.148C105.157 168.34 104.921 168.508 104.641 168.652C104.369 168.796 104.077 168.912 103.765 169C103.461 169.08 103.161 169.12 102.865 169.12ZM113.139 171.76C112.691 171.76 112.243 171.688 111.795 171.544C111.355 171.408 110.999 171.228 110.727 171.004L111.183 170.044C111.343 170.164 111.531 170.268 111.747 170.356C111.963 170.452 112.191 170.524 112.431 170.572C112.671 170.628 112.907 170.656 113.139 170.656C113.579 170.656 113.947 170.584 114.243 170.44C114.539 170.296 114.763 170.084 114.915 169.804C115.067 169.524 115.143 169.176 115.143 168.76V167.548L115.275 167.632C115.235 167.88 115.103 168.12 114.879 168.352C114.663 168.576 114.391 168.76 114.063 168.904C113.735 169.048 113.399 169.12 113.055 169.12C112.455 169.12 111.919 168.98 111.447 168.7C110.983 168.412 110.615 168.024 110.343 167.536C110.071 167.04 109.935 166.476 109.935 165.844C109.935 165.212 110.067 164.652 110.331 164.164C110.603 163.668 110.971 163.28 111.435 163C111.907 162.712 112.435 162.568 113.019 162.568C113.259 162.568 113.491 162.6 113.715 162.664C113.939 162.72 114.147 162.804 114.339 162.916C114.531 163.02 114.703 163.136 114.855 163.264C115.007 163.392 115.131 163.528 115.227 163.672C115.323 163.816 115.383 163.952 115.407 164.08L115.143 164.176V162.7H116.379V168.616C116.379 169.12 116.303 169.564 116.151 169.948C116.007 170.34 115.795 170.668 115.515 170.932C115.235 171.204 114.895 171.408 114.495 171.544C114.095 171.688 113.643 171.76 113.139 171.76ZM113.187 167.98C113.579 167.98 113.927 167.888 114.231 167.704C114.535 167.52 114.771 167.268 114.939 166.948C115.107 166.628 115.191 166.26 115.191 165.844C115.191 165.428 115.103 165.06 114.927 164.74C114.759 164.412 114.523 164.156 114.219 163.972C113.923 163.788 113.579 163.696 113.187 163.696C112.803 163.696 112.459 163.792 112.155 163.984C111.859 164.168 111.623 164.424 111.447 164.752C111.279 165.072 111.195 165.436 111.195 165.844C111.195 166.252 111.279 166.62 111.447 166.948C111.623 167.268 111.859 167.52 112.155 167.704C112.459 167.888 112.803 167.98 113.187 167.98ZM120.944 169.12C120.328 169.12 119.776 168.98 119.288 168.7C118.808 168.412 118.428 168.024 118.148 167.536C117.868 167.04 117.728 166.476 117.728 165.844C117.728 165.212 117.868 164.652 118.148 164.164C118.428 163.668 118.808 163.28 119.288 163C119.776 162.712 120.328 162.568 120.944 162.568C121.552 162.568 122.096 162.712 122.576 163C123.064 163.28 123.448 163.668 123.728 164.164C124.008 164.652 124.148 165.212 124.148 165.844C124.148 166.476 124.008 167.04 123.728 167.536C123.448 168.024 123.064 168.412 122.576 168.7C122.096 168.98 121.552 169.12 120.944 169.12ZM120.944 167.992C121.32 167.992 121.656 167.9 121.952 167.716C122.248 167.524 122.48 167.268 122.648 166.948C122.816 166.62 122.896 166.252 122.888 165.844C122.896 165.428 122.816 165.06 122.648 164.74C122.48 164.412 122.248 164.156 121.952 163.972C121.656 163.788 121.32 163.696 120.944 163.696C120.568 163.696 120.228 163.792 119.924 163.984C119.628 164.168 119.396 164.424 119.228 164.752C119.06 165.072 118.98 165.436 118.988 165.844C118.98 166.252 119.06 166.62 119.228 166.948C119.396 167.268 119.628 167.524 119.924 167.716C120.228 167.9 120.568 167.992 120.944 167.992ZM132.17 169.12C131.898 169.12 131.626 169.076 131.354 168.988C131.09 168.9 130.846 168.784 130.622 168.64C130.406 168.488 130.222 168.324 130.07 168.148C129.926 167.964 129.83 167.78 129.782 167.596L130.094 167.428V168.964H128.858V160.12H130.094V164.14L129.902 164.032C129.942 163.848 130.03 163.672 130.166 163.504C130.302 163.328 130.474 163.172 130.682 163.036C130.898 162.892 131.13 162.78 131.378 162.7C131.626 162.612 131.878 162.568 132.134 162.568C132.702 162.568 133.206 162.708 133.646 162.988C134.086 163.268 134.434 163.656 134.69 164.152C134.946 164.64 135.074 165.2 135.074 165.832C135.074 166.464 134.946 167.028 134.69 167.524C134.442 168.02 134.098 168.412 133.658 168.7C133.218 168.98 132.722 169.12 132.17 169.12ZM131.966 167.992C132.334 167.992 132.662 167.9 132.95 167.716C133.238 167.524 133.466 167.268 133.634 166.948C133.802 166.62 133.886 166.248 133.886 165.832C133.886 165.424 133.802 165.06 133.634 164.74C133.474 164.412 133.25 164.156 132.962 163.972C132.674 163.788 132.342 163.696 131.966 163.696C131.59 163.696 131.258 163.788 130.97 163.972C130.682 164.156 130.454 164.412 130.286 164.74C130.118 165.06 130.034 165.424 130.034 165.832C130.034 166.248 130.118 166.62 130.286 166.948C130.454 167.268 130.682 167.524 130.97 167.716C131.258 167.9 131.59 167.992 131.966 167.992ZM138.841 169.12C138.321 169.12 137.845 168.976 137.413 168.688C136.989 168.4 136.649 168.008 136.393 167.512C136.137 167.016 136.009 166.456 136.009 165.832C136.009 165.2 136.137 164.64 136.393 164.152C136.657 163.656 137.009 163.268 137.449 162.988C137.897 162.708 138.397 162.568 138.949 162.568C139.277 162.568 139.577 162.616 139.849 162.712C140.121 162.808 140.357 162.944 140.557 163.12C140.765 163.288 140.933 163.484 141.061 163.708C141.197 163.932 141.281 164.172 141.313 164.428L141.037 164.332V162.7H142.285V169H141.037V167.5L141.325 167.416C141.277 167.632 141.177 167.844 141.025 168.052C140.881 168.252 140.693 168.432 140.461 168.592C140.237 168.752 139.985 168.88 139.705 168.976C139.433 169.072 139.145 169.12 138.841 169.12ZM139.165 167.98C139.541 167.98 139.873 167.888 140.161 167.704C140.449 167.52 140.673 167.268 140.833 166.948C141.001 166.62 141.085 166.248 141.085 165.832C141.085 165.424 141.001 165.06 140.833 164.74C140.673 164.42 140.449 164.168 140.161 163.984C139.873 163.8 139.541 163.708 139.165 163.708C138.797 163.708 138.469 163.8 138.181 163.984C137.901 164.168 137.677 164.42 137.509 164.74C137.349 165.06 137.269 165.424 137.269 165.832C137.269 166.248 137.349 166.62 137.509 166.948C137.677 167.268 137.901 167.52 138.181 167.704C138.469 167.888 138.797 167.98 139.165 167.98ZM146.686 169.12C146.102 169.12 145.578 168.976 145.114 168.688C144.658 168.4 144.294 168.008 144.022 167.512C143.758 167.016 143.626 166.46 143.626 165.844C143.626 165.228 143.758 164.672 144.022 164.176C144.294 163.68 144.658 163.288 145.114 163C145.578 162.712 146.102 162.568 146.686 162.568C147.246 162.568 147.754 162.684 148.21 162.916C148.674 163.14 149.026 163.448 149.266 163.84L148.582 164.68C148.454 164.496 148.29 164.328 148.09 164.176C147.89 164.024 147.678 163.904 147.454 163.816C147.23 163.728 147.014 163.684 146.806 163.684C146.422 163.684 146.078 163.78 145.774 163.972C145.478 164.156 145.242 164.412 145.066 164.74C144.89 165.068 144.802 165.436 144.802 165.844C144.802 166.252 144.894 166.62 145.078 166.948C145.262 167.268 145.506 167.524 145.81 167.716C146.114 167.908 146.45 168.004 146.818 168.004C147.034 168.004 147.242 167.968 147.442 167.896C147.65 167.824 147.85 167.716 148.042 167.572C148.234 167.428 148.414 167.252 148.582 167.044L149.266 167.884C149.01 168.244 148.642 168.54 148.162 168.772C147.69 169.004 147.198 169.12 146.686 169.12ZM151.56 167.032L151.5 165.688L154.512 162.7H156.18L151.56 167.032ZM150.432 169V160.12H151.668V169H150.432ZM154.68 169L152.304 166.228L153.18 165.424L156.264 169H154.68ZM161.396 169V161.092H162.632V169H161.396ZM160.088 163.9V162.7H164.096V163.9H160.088ZM167.995 169.12C167.379 169.12 166.827 168.98 166.339 168.7C165.859 168.412 165.479 168.024 165.199 167.536C164.919 167.04 164.779 166.476 164.779 165.844C164.779 165.212 164.919 164.652 165.199 164.164C165.479 163.668 165.859 163.28 166.339 163C166.827 162.712 167.379 162.568 167.995 162.568C168.603 162.568 169.147 162.712 169.627 163C170.115 163.28 170.499 163.668 170.779 164.164C171.059 164.652 171.199 165.212 171.199 165.844C171.199 166.476 171.059 167.04 170.779 167.536C170.499 168.024 170.115 168.412 169.627 168.7C169.147 168.98 168.603 169.12 167.995 169.12ZM167.995 167.992C168.371 167.992 168.707 167.9 169.003 167.716C169.299 167.524 169.531 167.268 169.699 166.948C169.867 166.62 169.947 166.252 169.939 165.844C169.947 165.428 169.867 165.06 169.699 164.74C169.531 164.412 169.299 164.156 169.003 163.972C168.707 163.788 168.371 163.696 167.995 163.696C167.619 163.696 167.279 163.792 166.975 163.984C166.679 164.168 166.447 164.424 166.279 164.752C166.111 165.072 166.031 165.436 166.039 165.844C166.031 166.252 166.111 166.62 166.279 166.948C166.447 167.268 166.679 167.524 166.975 167.716C167.279 167.9 167.619 167.992 167.995 167.992ZM176.689 169V161.092H177.925V169H176.689ZM175.381 163.9V162.7H179.389V163.9H175.381ZM180.514 169V160.12H181.75V163.996L181.534 164.14C181.614 163.86 181.77 163.604 182.002 163.372C182.234 163.132 182.51 162.94 182.83 162.796C183.15 162.644 183.478 162.568 183.814 162.568C184.294 162.568 184.694 162.664 185.014 162.856C185.334 163.04 185.574 163.324 185.734 163.708C185.894 164.092 185.974 164.576 185.974 165.16V169H184.738V165.244C184.738 164.884 184.69 164.588 184.594 164.356C184.498 164.116 184.35 163.944 184.15 163.84C183.95 163.728 183.702 163.68 183.406 163.696C183.166 163.696 182.946 163.736 182.746 163.816C182.546 163.888 182.37 163.992 182.218 164.128C182.074 164.264 181.958 164.424 181.87 164.608C181.79 164.784 181.75 164.976 181.75 165.184V169H181.138C181.034 169 180.93 169 180.826 169C180.722 169 180.618 169 180.514 169ZM190.591 169.12C189.943 169.12 189.367 168.984 188.863 168.712C188.367 168.432 187.975 168.052 187.687 167.572C187.407 167.092 187.267 166.54 187.267 165.916C187.267 165.42 187.347 164.968 187.507 164.56C187.667 164.152 187.887 163.8 188.167 163.504C188.455 163.2 188.795 162.968 189.187 162.808C189.587 162.64 190.019 162.556 190.483 162.556C190.891 162.556 191.271 162.636 191.623 162.796C191.975 162.948 192.279 163.16 192.535 163.432C192.799 163.704 192.999 164.028 193.135 164.404C193.279 164.772 193.347 165.176 193.339 165.616L193.327 166.144H188.179L187.903 165.16H192.259L192.079 165.364V165.076C192.055 164.812 191.967 164.576 191.815 164.368C191.663 164.16 191.471 163.996 191.239 163.876C191.007 163.756 190.755 163.696 190.483 163.696C190.051 163.696 189.687 163.78 189.391 163.948C189.095 164.108 188.871 164.348 188.719 164.668C188.567 164.98 188.491 165.368 188.491 165.832C188.491 166.272 188.583 166.656 188.767 166.984C188.951 167.304 189.211 167.552 189.547 167.728C189.883 167.904 190.271 167.992 190.711 167.992C191.023 167.992 191.311 167.94 191.575 167.836C191.847 167.732 192.139 167.544 192.451 167.272L193.075 168.148C192.883 168.34 192.647 168.508 192.367 168.652C192.095 168.796 191.803 168.912 191.491 169C191.187 169.08 190.887 169.12 190.591 169.12ZM198.046 169V160.12H199.282V163.996L199.066 164.14C199.146 163.86 199.302 163.604 199.534 163.372C199.766 163.132 200.042 162.94 200.362 162.796C200.682 162.644 201.01 162.568 201.346 162.568C201.826 162.568 202.226 162.664 202.546 162.856C202.866 163.04 203.106 163.324 203.266 163.708C203.426 164.092 203.506 164.576 203.506 165.16V169H202.27V165.244C202.27 164.884 202.222 164.588 202.126 164.356C202.03 164.116 201.882 163.944 201.682 163.84C201.482 163.728 201.234 163.68 200.938 163.696C200.698 163.696 200.478 163.736 200.278 163.816C200.078 163.888 199.902 163.992 199.75 164.128C199.606 164.264 199.49 164.424 199.402 164.608C199.322 164.784 199.282 164.976 199.282 165.184V169H198.67C198.566 169 198.462 169 198.358 169C198.254 169 198.15 169 198.046 169ZM208.014 169.12C207.398 169.12 206.846 168.98 206.358 168.7C205.878 168.412 205.498 168.024 205.218 167.536C204.938 167.04 204.798 166.476 204.798 165.844C204.798 165.212 204.938 164.652 205.218 164.164C205.498 163.668 205.878 163.28 206.358 163C206.846 162.712 207.398 162.568 208.014 162.568C208.622 162.568 209.166 162.712 209.646 163C210.134 163.28 210.518 163.668 210.798 164.164C211.078 164.652 211.218 165.212 211.218 165.844C211.218 166.476 211.078 167.04 210.798 167.536C210.518 168.024 210.134 168.412 209.646 168.7C209.166 168.98 208.622 169.12 208.014 169.12ZM208.014 167.992C208.39 167.992 208.726 167.9 209.022 167.716C209.318 167.524 209.55 167.268 209.718 166.948C209.886 166.62 209.966 166.252 209.958 165.844C209.966 165.428 209.886 165.06 209.718 164.74C209.55 164.412 209.318 164.156 209.022 163.972C208.726 163.788 208.39 163.696 208.014 163.696C207.638 163.696 207.298 163.792 206.994 163.984C206.698 164.168 206.466 164.424 206.298 164.752C206.13 165.072 206.05 165.436 206.058 165.844C206.05 166.252 206.13 166.62 206.298 166.948C206.466 167.268 206.698 167.524 206.994 167.716C207.298 167.9 207.638 167.992 208.014 167.992ZM212.541 169V162.7H213.789V164.044L213.561 164.188C213.625 163.98 213.725 163.78 213.861 163.588C214.005 163.396 214.177 163.228 214.377 163.084C214.585 162.932 214.805 162.812 215.037 162.724C215.277 162.636 215.521 162.592 215.769 162.592C216.129 162.592 216.445 162.652 216.717 162.772C216.989 162.892 217.213 163.072 217.389 163.312C217.565 163.552 217.693 163.852 217.773 164.212L217.581 164.164L217.665 163.96C217.753 163.776 217.873 163.604 218.025 163.444C218.185 163.276 218.365 163.128 218.565 163C218.765 162.872 218.977 162.772 219.201 162.7C219.425 162.628 219.645 162.592 219.861 162.592C220.333 162.592 220.721 162.688 221.025 162.88C221.337 163.072 221.569 163.364 221.721 163.756C221.881 164.148 221.961 164.636 221.961 165.22V169H220.713V165.292C220.713 164.932 220.665 164.64 220.569 164.416C220.481 164.184 220.345 164.012 220.161 163.9C219.977 163.788 219.741 163.732 219.453 163.732C219.229 163.732 219.017 163.772 218.817 163.852C218.625 163.924 218.457 164.028 218.313 164.164C218.169 164.3 218.057 164.46 217.977 164.644C217.897 164.82 217.857 165.016 217.857 165.232V169H216.609V165.268C216.609 164.94 216.561 164.664 216.465 164.44C216.369 164.208 216.229 164.032 216.045 163.912C215.861 163.792 215.637 163.732 215.373 163.732C215.149 163.732 214.941 163.772 214.749 163.852C214.557 163.924 214.389 164.028 214.245 164.164C214.101 164.292 213.989 164.448 213.909 164.632C213.829 164.808 213.789 165 213.789 165.208V169H212.541ZM226.556 169.12C225.908 169.12 225.332 168.984 224.828 168.712C224.332 168.432 223.94 168.052 223.652 167.572C223.372 167.092 223.232 166.54 223.232 165.916C223.232 165.42 223.312 164.968 223.472 164.56C223.632 164.152 223.852 163.8 224.132 163.504C224.42 163.2 224.76 162.968 225.152 162.808C225.552 162.64 225.984 162.556 226.448 162.556C226.856 162.556 227.236 162.636 227.588 162.796C227.94 162.948 228.244 163.16 228.5 163.432C228.764 163.704 228.964 164.028 229.1 164.404C229.244 164.772 229.312 165.176 229.304 165.616L229.292 166.144H224.144L223.868 165.16H228.224L228.044 165.364V165.076C228.02 164.812 227.932 164.576 227.78 164.368C227.628 164.16 227.436 163.996 227.204 163.876C226.972 163.756 226.72 163.696 226.448 163.696C226.016 163.696 225.652 163.78 225.356 163.948C225.06 164.108 224.836 164.348 224.684 164.668C224.532 164.98 224.456 165.368 224.456 165.832C224.456 166.272 224.548 166.656 224.732 166.984C224.916 167.304 225.176 167.552 225.512 167.728C225.848 167.904 226.236 167.992 226.676 167.992C226.988 167.992 227.276 167.94 227.54 167.836C227.812 167.732 228.104 167.544 228.416 167.272L229.04 168.148C228.848 168.34 228.612 168.508 228.332 168.652C228.06 168.796 227.768 168.912 227.456 169C227.152 169.08 226.852 169.12 226.556 169.12ZM230.647 171.64V162.7H231.895V164.14L231.703 164.032C231.751 163.792 231.887 163.564 232.111 163.348C232.335 163.124 232.607 162.944 232.927 162.808C233.255 162.664 233.591 162.592 233.935 162.592C234.503 162.592 235.007 162.732 235.447 163.012C235.887 163.292 236.235 163.676 236.491 164.164C236.747 164.652 236.875 165.212 236.875 165.844C236.875 166.468 236.747 167.028 236.491 167.524C236.243 168.012 235.899 168.4 235.459 168.688C235.019 168.968 234.523 169.108 233.971 169.108C233.603 169.108 233.247 169.036 232.903 168.892C232.559 168.74 232.267 168.548 232.027 168.316C231.787 168.084 231.639 167.844 231.583 167.596L231.895 167.428V171.64H230.647ZM233.767 167.968C234.135 167.968 234.463 167.876 234.751 167.692C235.039 167.508 235.267 167.256 235.435 166.936C235.603 166.616 235.687 166.252 235.687 165.844C235.687 165.436 235.603 165.076 235.435 164.764C235.275 164.444 235.051 164.192 234.763 164.008C234.475 163.824 234.143 163.732 233.767 163.732C233.391 163.732 233.059 163.824 232.771 164.008C232.483 164.184 232.255 164.432 232.087 164.752C231.919 165.072 231.835 165.436 231.835 165.844C231.835 166.252 231.919 166.616 232.087 166.936C232.255 167.256 232.483 167.508 232.771 167.692C233.059 167.876 233.391 167.968 233.767 167.968ZM240.642 169.12C240.122 169.12 239.646 168.976 239.214 168.688C238.79 168.4 238.45 168.008 238.194 167.512C237.938 167.016 237.81 166.456 237.81 165.832C237.81 165.2 237.938 164.64 238.194 164.152C238.458 163.656 238.81 163.268 239.25 162.988C239.698 162.708 240.198 162.568 240.75 162.568C241.078 162.568 241.378 162.616 241.65 162.712C241.922 162.808 242.158 162.944 242.358 163.12C242.566 163.288 242.734 163.484 242.862 163.708C242.998 163.932 243.082 164.172 243.114 164.428L242.838 164.332V162.7H244.086V169H242.838V167.5L243.126 167.416C243.078 167.632 242.978 167.844 242.826 168.052C242.682 168.252 242.494 168.432 242.262 168.592C242.038 168.752 241.786 168.88 241.506 168.976C241.234 169.072 240.946 169.12 240.642 169.12ZM240.966 167.98C241.342 167.98 241.674 167.888 241.962 167.704C242.25 167.52 242.474 167.268 242.634 166.948C242.802 166.62 242.886 166.248 242.886 165.832C242.886 165.424 242.802 165.06 242.634 164.74C242.474 164.42 242.25 164.168 241.962 163.984C241.674 163.8 241.342 163.708 240.966 163.708C240.598 163.708 240.27 163.8 239.982 163.984C239.702 164.168 239.478 164.42 239.31 164.74C239.15 165.06 239.07 165.424 239.07 165.832C239.07 166.248 239.15 166.62 239.31 166.948C239.478 167.268 239.702 167.52 239.982 167.704C240.27 167.888 240.598 167.98 240.966 167.98ZM248.631 171.76C248.183 171.76 247.735 171.688 247.287 171.544C246.847 171.408 246.491 171.228 246.219 171.004L246.675 170.044C246.835 170.164 247.023 170.268 247.239 170.356C247.455 170.452 247.683 170.524 247.923 170.572C248.163 170.628 248.399 170.656 248.631 170.656C249.071 170.656 249.439 170.584 249.735 170.44C250.031 170.296 250.255 170.084 250.407 169.804C250.559 169.524 250.635 169.176 250.635 168.76V167.548L250.767 167.632C250.727 167.88 250.595 168.12 250.371 168.352C250.155 168.576 249.883 168.76 249.555 168.904C249.227 169.048 248.891 169.12 248.547 169.12C247.947 169.12 247.411 168.98 246.939 168.7C246.475 168.412 246.107 168.024 245.835 167.536C245.563 167.04 245.427 166.476 245.427 165.844C245.427 165.212 245.559 164.652 245.823 164.164C246.095 163.668 246.463 163.28 246.927 163C247.399 162.712 247.927 162.568 248.511 162.568C248.751 162.568 248.983 162.6 249.207 162.664C249.431 162.72 249.639 162.804 249.831 162.916C250.023 163.02 250.195 163.136 250.347 163.264C250.499 163.392 250.623 163.528 250.719 163.672C250.815 163.816 250.875 163.952 250.899 164.08L250.635 164.176V162.7H251.871V168.616C251.871 169.12 251.795 169.564 251.643 169.948C251.499 170.34 251.287 170.668 251.007 170.932C250.727 171.204 250.387 171.408 249.987 171.544C249.587 171.688 249.135 171.76 248.631 171.76ZM248.679 167.98C249.071 167.98 249.419 167.888 249.723 167.704C250.027 167.52 250.263 167.268 250.431 166.948C250.599 166.628 250.683 166.26 250.683 165.844C250.683 165.428 250.595 165.06 250.419 164.74C250.251 164.412 250.015 164.156 249.711 163.972C249.415 163.788 249.071 163.696 248.679 163.696C248.295 163.696 247.951 163.792 247.647 163.984C247.351 164.168 247.115 164.424 246.939 164.752C246.771 165.072 246.687 165.436 246.687 165.844C246.687 166.252 246.771 166.62 246.939 166.948C247.115 167.268 247.351 167.52 247.647 167.704C247.951 167.888 248.295 167.98 248.679 167.98ZM256.544 169.12C255.896 169.12 255.32 168.984 254.816 168.712C254.32 168.432 253.928 168.052 253.64 167.572C253.36 167.092 253.22 166.54 253.22 165.916C253.22 165.42 253.3 164.968 253.46 164.56C253.62 164.152 253.84 163.8 254.12 163.504C254.408 163.2 254.748 162.968 255.14 162.808C255.54 162.64 255.972 162.556 256.436 162.556C256.844 162.556 257.224 162.636 257.576 162.796C257.928 162.948 258.232 163.16 258.488 163.432C258.752 163.704 258.952 164.028 259.088 164.404C259.232 164.772 259.3 165.176 259.292 165.616L259.28 166.144H254.132L253.856 165.16H258.212L258.032 165.364V165.076C258.008 164.812 257.92 164.576 257.768 164.368C257.616 164.16 257.424 163.996 257.192 163.876C256.96 163.756 256.708 163.696 256.436 163.696C256.004 163.696 255.64 163.78 255.344 163.948C255.048 164.108 254.824 164.348 254.672 164.668C254.52 164.98 254.444 165.368 254.444 165.832C254.444 166.272 254.536 166.656 254.72 166.984C254.904 167.304 255.164 167.552 255.5 167.728C255.836 167.904 256.224 167.992 256.664 167.992C256.976 167.992 257.264 167.94 257.528 167.836C257.8 167.732 258.092 167.544 258.404 167.272L259.028 168.148C258.836 168.34 258.6 168.508 258.32 168.652C258.048 168.796 257.756 168.912 257.444 169C257.14 169.08 256.84 169.12 256.544 169.12Z" fill="#152027"/>
<path d="M73.128 131.18C72.228 131.18 71.394 131.018 70.626 130.694C69.858 130.37 69.186 129.92 68.61 129.344C68.046 128.756 67.608 128.066 67.296 127.274C66.984 126.482 66.828 125.618 66.828 124.682C66.828 123.746 66.984 122.882 67.296 122.09C67.608 121.298 68.046 120.614 68.61 120.038C69.186 119.45 69.858 118.994 70.626 118.67C71.394 118.346 72.228 118.184 73.128 118.184C74.04 118.184 74.88 118.346 75.648 118.67C76.416 118.994 77.082 119.45 77.646 120.038C78.21 120.626 78.648 121.316 78.96 122.108C79.272 122.888 79.428 123.746 79.428 124.682C79.428 125.606 79.272 126.464 78.96 127.256C78.648 128.048 78.21 128.738 77.646 129.326C77.082 129.914 76.416 130.37 75.648 130.694C74.88 131.018 74.04 131.18 73.128 131.18ZM73.128 128.948C73.704 128.948 74.226 128.846 74.694 128.642C75.174 128.426 75.588 128.126 75.936 127.742C76.284 127.346 76.554 126.89 76.746 126.374C76.95 125.858 77.052 125.294 77.052 124.682C77.052 124.07 76.95 123.506 76.746 122.99C76.554 122.474 76.284 122.024 75.936 121.64C75.588 121.244 75.174 120.944 74.694 120.74C74.226 120.524 73.704 120.416 73.128 120.416C72.564 120.416 72.042 120.524 71.562 120.74C71.082 120.944 70.668 121.238 70.32 121.622C69.972 122.006 69.702 122.456 69.51 122.972C69.318 123.488 69.222 124.058 69.222 124.682C69.222 125.294 69.318 125.864 69.51 126.392C69.702 126.908 69.972 127.358 70.32 127.742C70.668 128.126 71.082 128.426 71.562 128.642C72.042 128.846 72.564 128.948 73.128 128.948ZM87.4014 131.18C86.5014 131.18 85.6674 131.018 84.8994 130.694C84.1314 130.37 83.4594 129.92 82.8834 129.344C82.3194 128.756 81.8814 128.066 81.5694 127.274C81.2574 126.482 81.1014 125.618 81.1014 124.682C81.1014 123.746 81.2574 122.882 81.5694 122.09C81.8814 121.298 82.3194 120.614 82.8834 120.038C83.4594 119.45 84.1314 118.994 84.8994 118.67C85.6674 118.346 86.5014 118.184 87.4014 118.184C88.3134 118.184 89.1534 118.346 89.9214 118.67C90.6894 118.994 91.3554 119.45 91.9194 120.038C92.4834 120.626 92.9214 121.316 93.2334 122.108C93.5454 122.888 93.7014 123.746 93.7014 124.682C93.7014 125.606 93.5454 126.464 93.2334 127.256C92.9214 128.048 92.4834 128.738 91.9194 129.326C91.3554 129.914 90.6894 130.37 89.9214 130.694C89.1534 131.018 88.3134 131.18 87.4014 131.18ZM87.4014 128.948C87.9774 128.948 88.4994 128.846 88.9674 128.642C89.4474 128.426 89.8614 128.126 90.2094 127.742C90.5574 127.346 90.8274 126.89 91.0194 126.374C91.2234 125.858 91.3254 125.294 91.3254 124.682C91.3254 124.07 91.2234 123.506 91.0194 122.99C90.8274 122.474 90.5574 122.024 90.2094 121.64C89.8614 121.244 89.4474 120.944 88.9674 120.74C88.4994 120.524 87.9774 120.416 87.4014 120.416C86.8374 120.416 86.3154 120.524 85.8354 120.74C85.3554 120.944 84.9414 121.238 84.5934 121.622C84.2454 122.006 83.9754 122.456 83.7834 122.972C83.5914 123.488 83.4954 124.058 83.4954 124.682C83.4954 125.294 83.5914 125.864 83.7834 126.392C83.9754 126.908 84.2454 127.358 84.5934 127.742C84.9414 128.126 85.3554 128.426 85.8354 128.642C86.3154 128.846 86.8374 128.948 87.4014 128.948ZM96.2389 131V118.4H101.477C102.197 118.4 102.845 118.574 103.421 118.922C104.009 119.27 104.477 119.744 104.825 120.344C105.173 120.944 105.347 121.616 105.347 122.36C105.347 123.116 105.173 123.8 104.825 124.412C104.477 125.012 104.009 125.492 103.421 125.852C102.845 126.212 102.197 126.392 101.477 126.392H98.5789V131H96.2389ZM98.5789 124.232H101.315C101.615 124.232 101.885 124.148 102.125 123.98C102.377 123.812 102.575 123.59 102.719 123.314C102.875 123.038 102.953 122.726 102.953 122.378C102.953 122.03 102.875 121.724 102.719 121.46C102.575 121.184 102.377 120.968 102.125 120.812C101.885 120.644 101.615 120.56 101.315 120.56H98.5789V124.232ZM111.819 131.18C111.087 131.18 110.415 131.09 109.803 130.91C109.191 130.718 108.639 130.436 108.147 130.064C107.655 129.692 107.217 129.242 106.833 128.714L108.363 126.986C108.951 127.802 109.527 128.366 110.091 128.678C110.655 128.99 111.291 129.146 111.999 129.146C112.407 129.146 112.779 129.086 113.115 128.966C113.451 128.834 113.715 128.66 113.907 128.444C114.099 128.216 114.195 127.958 114.195 127.67C114.195 127.466 114.153 127.28 114.069 127.112C113.997 126.932 113.883 126.776 113.727 126.644C113.571 126.5 113.379 126.368 113.151 126.248C112.923 126.128 112.665 126.026 112.377 125.942C112.089 125.858 111.771 125.78 111.423 125.708C110.763 125.576 110.187 125.402 109.695 125.186C109.203 124.958 108.789 124.682 108.453 124.358C108.117 124.022 107.871 123.65 107.715 123.242C107.559 122.822 107.481 122.348 107.481 121.82C107.481 121.292 107.595 120.806 107.823 120.362C108.063 119.918 108.387 119.534 108.795 119.21C109.203 118.886 109.677 118.634 110.217 118.454C110.757 118.274 111.339 118.184 111.963 118.184C112.671 118.184 113.301 118.268 113.853 118.436C114.417 118.604 114.909 118.856 115.329 119.192C115.761 119.516 116.115 119.912 116.391 120.38L114.843 121.91C114.603 121.538 114.333 121.232 114.033 120.992C113.733 120.74 113.409 120.554 113.061 120.434C112.713 120.302 112.347 120.236 111.963 120.236C111.531 120.236 111.153 120.296 110.829 120.416C110.517 120.536 110.271 120.71 110.091 120.938C109.911 121.154 109.821 121.418 109.821 121.73C109.821 121.97 109.875 122.186 109.983 122.378C110.091 122.558 110.241 122.72 110.433 122.864C110.637 123.008 110.895 123.134 111.207 123.242C111.519 123.35 111.873 123.446 112.269 123.53C112.929 123.662 113.523 123.842 114.051 124.07C114.579 124.286 115.029 124.55 115.401 124.862C115.773 125.162 116.055 125.51 116.247 125.906C116.439 126.29 116.535 126.722 116.535 127.202C116.535 128.03 116.337 128.744 115.941 129.344C115.557 129.932 115.011 130.388 114.303 130.712C113.595 131.024 112.767 131.18 111.819 131.18ZM119.09 126.572C119.006 125.828 118.922 125.06 118.838 124.268C118.766 123.464 118.706 122.672 118.658 121.892C118.61 121.1 118.586 120.35 118.586 119.642V118.328H120.926V119.642C120.926 120.374 120.902 121.142 120.854 121.946C120.818 122.75 120.758 123.548 120.674 124.34C120.602 125.132 120.518 125.876 120.422 126.572H119.09ZM119.72 131.198C119.288 131.198 118.952 131.072 118.712 130.82C118.484 130.568 118.37 130.214 118.37 129.758C118.37 129.338 118.49 128.996 118.73 128.732C118.982 128.456 119.312 128.318 119.72 128.318C120.152 128.318 120.482 128.444 120.71 128.696C120.95 128.936 121.07 129.29 121.07 129.758C121.07 130.178 120.944 130.526 120.692 130.802C120.452 131.066 120.128 131.198 119.72 131.198ZM129.11 131V118.4H131.216L138.524 128.246L138.128 128.318C138.08 127.982 138.038 127.64 138.002 127.292C137.966 126.932 137.93 126.56 137.894 126.176C137.87 125.792 137.846 125.39 137.822 124.97C137.81 124.55 137.798 124.112 137.786 123.656C137.774 123.188 137.768 122.696 137.768 122.18V118.4H140.09V131H137.948L130.604 121.298L131.072 121.172C131.132 121.844 131.18 122.42 131.216 122.9C131.264 123.368 131.3 123.776 131.324 124.124C131.348 124.46 131.366 124.742 131.378 124.97C131.402 125.198 131.414 125.408 131.414 125.6C131.426 125.78 131.432 125.954 131.432 126.122V131H129.11ZM147.413 131.18C146.465 131.18 145.619 130.97 144.875 130.55C144.131 130.118 143.543 129.53 143.111 128.786C142.679 128.042 142.463 127.196 142.463 126.248C142.463 125.3 142.679 124.454 143.111 123.71C143.543 122.966 144.131 122.384 144.875 121.964C145.619 121.532 146.465 121.316 147.413 121.316C148.349 121.316 149.189 121.532 149.933 121.964C150.677 122.384 151.259 122.966 151.679 123.71C152.111 124.454 152.327 125.3 152.327 126.248C152.327 127.196 152.111 128.042 151.679 128.786C151.259 129.53 150.677 130.118 149.933 130.55C149.189 130.97 148.349 131.18 147.413 131.18ZM147.413 129.218C147.929 129.218 148.385 129.086 148.781 128.822C149.189 128.558 149.507 128.204 149.735 127.76C149.975 127.316 150.089 126.812 150.077 126.248C150.089 125.672 149.975 125.162 149.735 124.718C149.507 124.274 149.189 123.926 148.781 123.674C148.385 123.41 147.929 123.278 147.413 123.278C146.897 123.278 146.429 123.41 146.009 123.674C145.601 123.926 145.283 124.28 145.055 124.736C144.827 125.18 144.713 125.684 144.713 126.248C144.713 126.812 144.827 127.316 145.055 127.76C145.283 128.204 145.601 128.558 146.009 128.822C146.429 129.086 146.897 129.218 147.413 129.218ZM159.995 131V118.4H165.053C165.965 118.4 166.787 118.55 167.519 118.85C168.263 119.15 168.899 119.582 169.427 120.146C169.967 120.71 170.375 121.376 170.651 122.144C170.939 122.912 171.083 123.764 171.083 124.7C171.083 125.636 170.939 126.494 170.651 127.274C170.375 128.042 169.973 128.708 169.445 129.272C168.917 129.824 168.281 130.25 167.537 130.55C166.793 130.85 165.965 131 165.053 131H159.995ZM162.335 129.182L162.155 128.84H164.963C165.551 128.84 166.073 128.744 166.529 128.552C166.997 128.36 167.393 128.084 167.717 127.724C168.041 127.364 168.287 126.932 168.455 126.428C168.623 125.912 168.707 125.336 168.707 124.7C168.707 124.064 168.623 123.494 168.455 122.99C168.287 122.474 168.035 122.036 167.699 121.676C167.375 121.316 166.985 121.04 166.529 120.848C166.073 120.656 165.551 120.56 164.963 120.56H162.101L162.335 120.254V129.182ZM176.804 131.18C176.024 131.18 175.316 130.964 174.68 130.532C174.044 130.1 173.534 129.512 173.15 128.768C172.766 128.024 172.574 127.178 172.574 126.23C172.574 125.282 172.766 124.436 173.15 123.692C173.534 122.948 174.056 122.366 174.716 121.946C175.376 121.526 176.12 121.316 176.948 121.316C177.428 121.316 177.866 121.388 178.262 121.532C178.658 121.664 179.006 121.856 179.306 122.108C179.606 122.36 179.852 122.648 180.044 122.972C180.248 123.296 180.386 123.644 180.458 124.016L179.972 123.89V121.514H182.204V131H179.954V128.732L180.476 128.642C180.392 128.966 180.236 129.284 180.008 129.596C179.792 129.896 179.516 130.166 179.18 130.406C178.856 130.634 178.49 130.82 178.082 130.964C177.686 131.108 177.26 131.18 176.804 131.18ZM177.416 129.218C177.932 129.218 178.388 129.092 178.784 128.84C179.18 128.588 179.486 128.24 179.702 127.796C179.93 127.34 180.044 126.818 180.044 126.23C180.044 125.654 179.93 125.144 179.702 124.7C179.486 124.256 179.18 123.908 178.784 123.656C178.388 123.404 177.932 123.278 177.416 123.278C176.9 123.278 176.444 123.404 176.048 123.656C175.664 123.908 175.364 124.256 175.148 124.7C174.932 125.144 174.824 125.654 174.824 126.23C174.824 126.818 174.932 127.34 175.148 127.796C175.364 128.24 175.664 128.588 176.048 128.84C176.444 129.092 176.9 129.218 177.416 129.218ZM185.797 131V119.102H188.011V131H185.797ZM183.925 123.566V121.514H190.081V123.566H183.925ZM195.261 131.18C194.481 131.18 193.773 130.964 193.137 130.532C192.501 130.1 191.991 129.512 191.607 128.768C191.223 128.024 191.031 127.178 191.031 126.23C191.031 125.282 191.223 124.436 191.607 123.692C191.991 122.948 192.513 122.366 193.173 121.946C193.833 121.526 194.577 121.316 195.405 121.316C195.885 121.316 196.323 121.388 196.719 121.532C197.115 121.664 197.463 121.856 197.763 122.108C198.063 122.36 198.309 122.648 198.501 122.972C198.705 123.296 198.843 123.644 198.915 124.016L198.429 123.89V121.514H200.661V131H198.411V128.732L198.933 128.642C198.849 128.966 198.693 129.284 198.465 129.596C198.249 129.896 197.973 130.166 197.637 130.406C197.313 130.634 196.947 130.82 196.539 130.964C196.143 131.108 195.717 131.18 195.261 131.18ZM195.873 129.218C196.389 129.218 196.845 129.092 197.241 128.84C197.637 128.588 197.943 128.24 198.159 127.796C198.387 127.34 198.501 126.818 198.501 126.23C198.501 125.654 198.387 125.144 198.159 124.7C197.943 124.256 197.637 123.908 197.241 123.656C196.845 123.404 196.389 123.278 195.873 123.278C195.357 123.278 194.901 123.404 194.505 123.656C194.121 123.908 193.821 124.256 193.605 124.7C193.389 125.144 193.281 125.654 193.281 126.23C193.281 126.818 193.389 127.34 193.605 127.796C193.821 128.24 194.121 128.588 194.505 128.84C194.901 129.092 195.357 129.218 195.873 129.218ZM208.915 131V118.4H211.255V131H208.915ZM209.995 125.834V123.71H216.493V125.834H209.995ZM209.995 120.56V118.4H217.267V120.56H209.995ZM223.544 131.18C222.596 131.18 221.75 130.97 221.006 130.55C220.262 130.118 219.674 129.53 219.242 128.786C218.81 128.042 218.594 127.196 218.594 126.248C218.594 125.3 218.81 124.454 219.242 123.71C219.674 122.966 220.262 122.384 221.006 121.964C221.75 121.532 222.596 121.316 223.544 121.316C224.48 121.316 225.32 121.532 226.064 121.964C226.808 122.384 227.39 122.966 227.81 123.71C228.242 124.454 228.458 125.3 228.458 126.248C228.458 127.196 228.242 128.042 227.81 128.786C227.39 129.53 226.808 130.118 226.064 130.55C225.32 130.97 224.48 131.18 223.544 131.18ZM223.544 129.218C224.06 129.218 224.516 129.086 224.912 128.822C225.32 128.558 225.638 128.204 225.866 127.76C226.106 127.316 226.22 126.812 226.208 126.248C226.22 125.672 226.106 125.162 225.866 124.718C225.638 124.274 225.32 123.926 224.912 123.674C224.516 123.41 224.06 123.278 223.544 123.278C223.028 123.278 222.56 123.41 222.14 123.674C221.732 123.926 221.414 124.28 221.186 124.736C220.958 125.18 220.844 125.684 220.844 126.248C220.844 126.812 220.958 127.316 221.186 127.76C221.414 128.204 221.732 128.558 222.14 128.822C222.56 129.086 223.028 129.218 223.544 129.218ZM233.733 131.18C233.049 131.18 232.455 131.03 231.951 130.73C231.447 130.418 231.063 129.98 230.799 129.416C230.535 128.84 230.403 128.156 230.403 127.364V121.514H232.617V126.896C232.617 127.4 232.695 127.832 232.851 128.192C233.007 128.54 233.235 128.81 233.535 129.002C233.835 129.194 234.195 129.29 234.615 129.29C234.927 129.29 235.209 129.242 235.461 129.146C235.725 129.038 235.953 128.894 236.145 128.714C236.337 128.522 236.487 128.3 236.595 128.048C236.703 127.784 236.757 127.502 236.757 127.202V121.514H238.971V131H236.811L236.775 129.02L237.171 128.804C237.027 129.26 236.781 129.668 236.433 130.028C236.097 130.376 235.695 130.658 235.227 130.874C234.759 131.078 234.261 131.18 233.733 131.18ZM241.566 131V121.514H243.726L243.762 123.458L243.348 123.674C243.468 123.242 243.702 122.852 244.05 122.504C244.398 122.144 244.812 121.856 245.292 121.64C245.772 121.424 246.264 121.316 246.768 121.316C247.488 121.316 248.088 121.46 248.568 121.748C249.06 122.036 249.426 122.468 249.666 123.044C249.918 123.62 250.044 124.34 250.044 125.204V131H247.83V125.366C247.83 124.886 247.764 124.49 247.632 124.178C247.5 123.854 247.296 123.62 247.02 123.476C246.744 123.32 246.408 123.248 246.012 123.26C245.688 123.26 245.388 123.314 245.112 123.422C244.848 123.518 244.614 123.662 244.41 123.854C244.218 124.034 244.062 124.244 243.942 124.484C243.834 124.724 243.78 124.988 243.78 125.276V131H242.682C242.466 131 242.262 131 242.07 131C241.89 131 241.722 131 241.566 131ZM256.35 131.18C255.51 131.18 254.754 130.97 254.082 130.55C253.422 130.118 252.894 129.536 252.498 128.804C252.114 128.06 251.922 127.208 251.922 126.248C251.922 125.3 252.114 124.454 252.498 123.71C252.882 122.966 253.404 122.384 254.064 121.964C254.736 121.532 255.492 121.316 256.332 121.316C256.788 121.316 257.226 121.388 257.646 121.532C258.078 121.676 258.462 121.874 258.798 122.126C259.134 122.366 259.398 122.636 259.59 122.936C259.794 123.236 259.908 123.548 259.932 123.872L259.338 123.944V117.68H261.552V131H259.41L259.356 128.768L259.788 128.804C259.776 129.104 259.668 129.392 259.464 129.668C259.272 129.944 259.02 130.196 258.708 130.424C258.396 130.652 258.03 130.838 257.61 130.982C257.202 131.114 256.782 131.18 256.35 131.18ZM256.782 129.308C257.298 129.308 257.754 129.176 258.15 128.912C258.546 128.648 258.852 128.288 259.068 127.832C259.296 127.376 259.41 126.848 259.41 126.248C259.41 125.66 259.296 125.138 259.068 124.682C258.852 124.214 258.546 123.854 258.15 123.602C257.754 123.338 257.298 123.206 256.782 123.206C256.266 123.206 255.81 123.338 255.414 123.602C255.018 123.854 254.706 124.214 254.478 124.682C254.262 125.138 254.154 125.66 254.154 126.248C254.154 126.848 254.262 127.376 254.478 127.832C254.706 128.288 255.018 128.648 255.414 128.912C255.81 129.176 256.266 129.308 256.782 129.308Z" fill="#152027"/>
<path d="M214 88.4782C214 91.5043 191.614 93.957 164 93.957C136.386 93.957 114 91.5043 114 88.4782C114 85.4523 136.386 82.9996 164 82.9996C191.614 82.9996 214 85.4523 214 88.4782Z" fill="#ECECEC"/>
<path d="M125.83 53.9805C125.336 54.0587 125.336 54.0587 125.336 54.0588L125.336 54.0591L125.336 54.0604L125.337 54.0657L125.341 54.0867L125.354 54.1693L125.404 54.4887L125.593 55.6808L126.239 59.7616C126.758 63.04 127.412 67.1721 127.952 70.5871L127.952 70.5874C128.518 74.1505 131.623 76.7688 135.265 76.7688H135.345H135.425H135.505H135.586H135.667H135.748H135.83H135.912H135.995H136.078H136.161H136.245H136.329H136.414H136.498H136.584H136.669H136.755H136.841H136.928H137.015H137.102H137.19H137.278H137.366H137.455H137.544H137.633H137.723H137.813H137.904H137.994H138.086H138.177H138.269H138.361H138.453H138.546H138.639H138.733H138.826H138.92H139.015H139.11H139.205H139.3H139.396H139.492H139.588H139.685H139.781H139.879H139.976H140.074H140.172H140.271H140.369H140.468H140.568H140.667H140.767H140.868H140.968H141.069H141.17H141.271H141.373H141.475H141.577H141.68H141.783H141.886H141.989H142.093H142.196H142.301H142.405H142.51H142.615H142.72H142.826H142.931H143.037H143.144H143.25H143.357H143.464H143.571H143.679H143.787H143.895H144.003H144.112H144.221H144.33H144.439H144.549H144.658H144.768H144.879H144.989H145.1H145.211H145.322H145.433H145.545H145.657H145.769H145.881H145.994H146.107H146.22H146.333H146.446H146.56H146.674H146.788H146.902H147.016H147.131H147.246H147.361H147.476H147.592H147.707H147.823H147.939H148.055H148.172H148.289H148.405H148.522H148.64H148.757H148.875H148.992H149.11H149.228H149.347H149.465H149.584H149.703H149.822H149.941H150.06H150.18H150.299H150.419H150.539H150.659H150.779H150.9H151.021H151.141H151.262H151.383H151.505H151.626H151.747H151.869H151.991H152.113H152.235H152.357H152.48H152.602H152.725H152.848H152.97H153.094H153.217H153.34H153.463H153.587H153.711H153.834H153.958H154.082H154.207H154.331H154.455H154.58H154.704H154.829H154.954H155.079H155.204H155.329H155.454H155.58H155.705H155.831H155.956H156.082H156.208H156.334H156.46H156.586H156.712H156.838H156.965H157.091H157.218H157.344H157.471H157.598H157.724H157.851H157.978H158.105H158.233H158.36H158.487H158.614H158.742H158.869H158.997H159.124H159.252H159.379H159.507H159.635H159.763H159.891H160.019H160.147H160.275H160.403H160.531H160.659H160.787H160.915H161.044H161.172H161.3H161.429H161.557H161.685H161.814H161.942H162.071H162.199H162.328H162.456H162.585H162.714H162.842H162.971H163.099H163.228H163.357H163.485H163.614H163.743H163.871H164H164.129H164.257H164.386H164.515H164.643H164.772H164.901H165.029H165.158H165.286H165.415H165.544H165.672H165.801H165.929H166.058H166.186H166.315H166.443H166.571H166.7H166.828H166.956H167.085H167.213H167.341H167.469H167.597H167.725H167.853H167.981H168.109H168.237H168.365H168.493H168.621H168.748H168.876H169.003H169.131H169.258H169.386H169.513H169.64H169.767H169.895H170.022H170.149H170.276H170.402H170.529H170.656H170.782H170.909H171.035H171.162H171.288H171.414H171.54H171.666H171.792H171.918H172.044H172.169H172.295H172.42H172.546H172.671H172.796H172.921H173.046H173.171H173.296H173.42H173.545H173.669H173.793H173.918H174.042H174.166H174.289H174.413H174.537H174.66H174.783H174.906H175.03H175.152H175.275H175.398H175.52H175.643H175.765H175.887H176.009H176.131H176.253H176.374H176.495H176.617H176.738H176.859H176.979H177.1H177.221H177.341H177.461H177.581H177.701H177.82H177.94H178.059H178.178H178.297H178.416H178.535H178.653H178.772H178.89H179.008H179.125H179.243H179.36H179.478H179.595H179.711H179.828H179.945H180.061H180.177H180.293H180.408H180.524H180.639H180.754H180.869H180.984H181.098H181.212H181.326H181.44H181.554H181.667H181.78H181.893H182.006H182.119H182.231H182.343H182.455H182.567H182.678H182.789H182.9H183.011H183.121H183.232H183.342H183.451H183.561H183.67H183.779H183.888H183.997H184.105H184.213H184.321H184.429H184.536H184.643H184.75H184.856H184.963H185.069H185.174H185.28H185.385H185.49H185.595H185.699H185.804H185.907H186.011H186.114H186.217H186.32H186.423H186.525H186.627H186.729H186.83H186.931H187.032H187.132H187.233H187.333H187.432H187.532H187.631H187.729H187.828H187.926H188.024H188.121H188.219H188.315H188.412H188.508H188.604H188.7H188.795H188.89H188.985H189.08H189.174H189.267H189.361H189.454H189.547H189.639H189.731H189.823H189.914H190.006H190.096H190.187H190.277H190.367H190.456H190.545H190.634H190.722H190.81H190.898H190.985H191.072H191.159H191.245H191.331H191.416H191.502H191.586H191.671H191.755H191.839H191.922H192.005H192.088H192.17H192.252H192.333H192.414H192.495H192.575H192.655H192.735C196.377 76.7688 199.482 74.1505 200.048 70.5874L200.048 70.5871C201.822 59.3748 205.434 36.5553 207.441 23.8856L207.441 23.8851C207.773 21.7734 207.154 19.6231 205.75 18.0004L205.749 18.0001C204.342 16.3776 202.288 15.4459 200.128 15.4459H127.872C125.712 15.4459 123.658 16.3776 122.251 18.0001L122.25 18.0004C120.846 19.6231 120.227 21.7734 120.559 23.8851L120.559 23.8855L124.587 49.3243L124.587 49.3249C124.627 49.5758 124.454 49.8227 124.182 49.865C123.913 49.9055 123.667 49.7211 123.627 49.4686L123.627 49.4667L123.625 49.4584L123.62 49.4255L123.6 49.2959L123.52 48.7948L123.225 46.9289L122.219 40.5746L119.6 24.0311C119.224 21.6497 119.921 19.2235 121.51 17.3904C123.1 15.5569 125.424 14.5 127.872 14.5H127.974H128.077H128.18H128.284H128.388H128.492H128.597H128.702H128.808H128.914H129.021H129.128H129.235H129.343H129.451H129.56H129.669H129.779H129.889H130H130.111H130.222H130.334H130.446H130.559H130.672H130.785H130.899H131.013H131.128H131.243H131.358H131.474H131.591H131.707H131.824H131.942H132.06H132.178H132.297H132.416H132.535H132.655H132.775H132.896H133.017H133.138H133.26H133.382H133.504H133.627H133.75H133.874H133.998H134.122H134.247H134.372H134.497H134.623H134.749H134.875H135.002H135.129H135.257H135.384H135.513H135.641H135.77H135.899H136.029H136.158H136.289H136.419H136.55H136.681H136.813H136.944H137.076H137.209H137.342H137.475H137.608H137.742H137.876H138.01H138.145H138.28H138.415H138.551H138.686H138.823H138.959H139.096H139.233H139.37H139.508H139.646H139.784H139.922H140.061H140.2H140.339H140.479H140.619H140.759H140.899H141.04H141.181H141.322H141.464H141.605H141.747H141.89H142.032H142.175H142.318H142.461H142.605H142.748H142.892H143.037H143.181H143.326H143.471H143.616H143.761H143.907H144.053H144.199H144.346H144.492H144.639H144.786H144.933H145.081H145.229H145.376H145.525H145.673H145.821H145.97H146.119H146.268H146.418H146.567H146.717H146.867H147.017H147.168H147.318H147.469H147.62H147.771H147.922H148.074H148.225H148.377H148.529H148.681H148.834H148.986H149.139H149.292H149.445H149.598H149.752H149.905H150.059H150.213H150.367H150.521H150.675H150.83H150.984H151.139H151.294H151.449H151.604H151.76H151.915H152.071H152.227H152.382H152.538H152.695H152.851H153.007H153.164H153.32H153.477H153.634H153.791H153.948H154.106H154.263H154.42H154.578H154.736H154.893H155.051H155.209H155.367H155.525H155.684H155.842H156H156.159H156.318H156.476H156.635H156.794H156.953H157.112H157.271H157.43H157.59H157.749H157.908H158.068H158.227H158.387H158.547H158.706H158.866H159.026H159.186H159.346H159.506H159.666H159.826H159.986H160.146H160.307H160.467H160.627H160.788H160.948H161.108H161.269H161.429H161.59H161.75H161.911H162.072H162.232H162.393H162.554H162.714H162.875H163.036H163.196H163.357H163.518H163.679H163.839H164H164.161H164.321H164.482H164.643H164.804H164.964H165.125H165.286H165.446H165.607H165.768H165.928H166.089H166.25H166.41H166.571H166.731H166.892H167.052H167.212H167.373H167.533H167.693H167.854H168.014H168.174H168.334H168.494H168.654H168.814H168.974H169.134H169.294H169.453H169.613H169.773H169.932H170.092H170.251H170.41H170.57H170.729H170.888H171.047H171.206H171.365H171.524H171.682H171.841H172H172.158H172.316H172.475H172.633H172.791H172.949H173.107H173.264H173.422H173.58H173.737H173.895H174.052H174.209H174.366H174.523H174.68H174.836H174.993H175.149H175.305H175.462H175.618H175.773H175.929H176.085H176.24H176.396H176.551H176.706H176.861H177.016H177.17H177.325H177.479H177.633H177.787H177.941H178.095H178.248H178.402H178.555H178.708H178.861H179.014H179.166H179.319H179.471H179.623H179.775H179.926H180.078H180.229H180.38H180.531H180.682H180.832H180.983H181.133H181.283H181.433H181.582H181.732H181.881H182.03H182.179H182.327H182.475H182.624H182.772H182.919H183.067H183.214H183.361H183.508H183.654H183.801H183.947H184.093H184.239H184.384H184.529H184.674H184.819H184.963H185.108H185.252H185.395H185.539H185.682H185.825H185.968H186.11H186.253H186.395H186.536H186.678H186.819H186.96H187.101H187.241H187.381H187.521H187.661H187.8H187.939H188.078H188.216H188.354H188.492H188.63H188.767H188.904H189.041H189.177H189.314H189.449H189.585H189.72H189.855H189.99H190.124H190.258H190.392H190.525H190.658H190.791H190.924H191.056H191.187H191.319H191.45H191.581H191.711H191.842H191.971H192.101H192.23H192.359H192.487H192.616H192.743H192.871H192.998H193.125H193.251H193.377H193.503H193.628H193.753H193.878H194.002H194.126H194.25H194.373H194.496H194.618H194.74H194.862H194.983H195.104H195.225H195.345H195.465H195.584H195.703H195.822H195.94H196.058H196.176H196.293H196.409H196.526H196.642H196.757H196.872H196.987H197.101H197.215H197.328H197.441H197.554H197.666H197.778H197.889H198H198.111H198.221H198.331H198.44H198.549H198.657H198.765H198.872H198.979H199.086H199.192H199.298H199.403H199.508H199.612H199.716H199.82H199.923H200.026H200.128C202.576 14.5 204.9 15.5569 206.49 17.3904C208.079 19.2234 208.776 21.6494 208.401 24.0307C206.394 36.7005 202.782 59.5199 201.008 70.7322C200.371 74.7463 196.866 77.7147 192.735 77.7147H135.265C131.134 77.7147 127.629 74.7465 126.992 70.7325C126.452 67.3164 125.798 63.1838 125.279 59.9052L124.633 55.8241L124.444 54.632L124.394 54.3125L124.381 54.23L124.377 54.209L124.376 54.2037L124.376 54.2029C124.376 54.2028 124.376 54.2027 124.376 54.2026C124.337 53.9515 124.511 53.7051 124.781 53.6631C125.052 53.6209 125.297 53.8049 125.336 54.0575L125.336 54.0587L125.83 53.9805ZM121.053 23.8074L121.053 23.8074L121.053 23.8074Z" fill="white" stroke="#B6B6B7"/>
<path fill-rule="evenodd" clip-rule="evenodd" d="M203.016 11.5217V5.8377C203.016 4.29071 202.393 2.80599 201.283 1.71045C200.173 0.616854 198.669 0 197.101 0C190.042 0 178.413 0 172.187 0C169.65 0 167.397 1.59759 166.584 3.96964L166.023 5.68398H130.074C128.505 5.68398 127.001 6.29888 125.891 7.39443C124.783 8.48802 124.16 9.97275 124.16 11.5217H203.016Z" fill="#B6B6B7"/>
</svg>
